SplineFontDB: 3.2
FontName: Kaddare-Regular
FullName: Kaddare Regular
FamilyName: Kaddare
Weight: Book
Copyright: Copyright (c) 2025, Maryam Ahmed Mohamuud
Version: 001.000
ItalicAngle: 0
UnderlinePosition: -120
UnderlineWidth: 60
Ascent: 960
Descent: 240
InvalidEm: 0
sfntRevision: 0x00010000
LayerCount: 2
Layer: 0 0 "Back" 1
Layer: 1 0 "Fore" 0
XUID: [1021 937 1239733557 914627]
StyleMap: 0x0000
FSType: 0
OS2Version: 4
OS2_WeightWidthSlopeOnly: 0
OS2_UseTypoMetrics: 1
CreationTime: 1761404327
ModificationTime: 1768317341
PfmFamily: 17
TTFWeight: 400
TTFWidth: 5
LineGap: 108
VLineGap: 0
Panose: 2 0 5 9 0 0 0 0 0 0
OS2TypoAscent: 960
OS2TypoAOffset: 0
OS2TypoDescent: -240
OS2TypoDOffset: 0
OS2TypoLinegap: 108
OS2WinAscent: 1888
OS2WinAOffset: 0
OS2WinDescent: 0
OS2WinDOffset: 0
HheadAscent: 1888
HheadAOffset: 0
HheadDescent: 0
HheadDOffset: 0
OS2SubXSize: 780
OS2SubYSize: 840
OS2SubXOff: 0
OS2SubYOff: 168
OS2SupXSize: 780
OS2SupYSize: 840
OS2SupXOff: 0
OS2SupYOff: 576
OS2StrikeYSize: 59
OS2StrikeYPos: 310
OS2CapHeight: 1686
OS2XHeight: 1738
OS2Vendor: 'PfEd'
OS2CodePages: 00000001.00000000
OS2UnicodeRanges: 00000001.00000000.00000000.00000000
Lookup: 4 0 1 "'rlig' Required Ligatures lookup 0" { "'rlig' Required Ligatures lookup 0 subtable"  } ['rlig' ('DFLT' <'dflt' > ) ]
Lookup: 4 0 1 "'rlig' Required Ligatures lookup 1" { "'rlig' Required Ligatures lookup 1 subtable"  } ['rlig' ('DFLT' <'dflt' > ) ]
MarkAttachClasses: 1
DEI: 91125

StartChar: .notdef
Encoding: 65536 -1 0
Width: 960
GlyphClass: 1
Flags: W
LayerCount: 2
Fore
SplineSet
40 -700 m 1
 40 99 l 1
 358 99 l 1
 358 -700 l 1
 40 -700 l 1
79 -660 m 1
 318 -660 l 1
 318 60 l 1
 79 60 l 1
 79 -660 l 1
EndSplineSet
EndChar

StartChar: A
Encoding: 65 65 1
Width: 634
GlyphClass: 1
Flags: W
LayerCount: 2
Fore
SplineSet
63.697265625 751.424804688 m 0
 73.20703125 760.934570312 81.525390625 768.0625 88.6572265625 772.817382812 c 0
 95.7900390625 777.572265625 103.979492188 781.798828125 113.225585938 785.497070312 c 0
 122.470703125 789.1953125 137.66015625 791.705078125 158.793945312 793.025390625 c 0
 179.927734375 794.346679688 202.118164062 795.139648438 225.365234375 795.404296875 c 0
 248.612304688 795.668945312 284.5390625 795.80078125 333.145507812 795.80078125 c 0
 434.057617188 795.80078125 498.646484375 793.951171875 526.912109375 790.252929688 c 0
 555.177734375 786.5546875 577.5 776.780273438 593.877929688 760.930664062 c 0
 608.671875 745.609375 618.842773438 730.948242188 624.390625 716.947265625 c 0
 629.938476562 702.946289062 630.203125 691.719726562 625.184570312 683.266601562 c 0
 620.165039062 674.813476562 610.258789062 670.586914062 595.465820312 670.586914062 c 0
 586.484375 670.586914062 577.634765625 673.228515625 568.916992188 678.51171875 c 0
 560.19921875 683.794921875 553.991210938 690.134765625 550.29296875 697.53125 c 0
 547.123046875 709.155273438 531.405273438 716.551757812 503.138671875 719.721679688 c 0
 474.873046875 722.891601562 419.530273438 724.4765625 337.110351562 724.4765625 c 0
 201.857421875 724.4765625 127.098632812 717.34375 112.833984375 703.079101562 c 0
 103.323242188 693.568359375 96.5869140625 640.8671875 92.625 544.975585938 c 0
 88.6630859375 449.083007812 88.6630859375 353.322265625 92.625 257.694335938 c 0
 96.5869140625 162.065429688 103.323242188 109.49609375 112.833984375 99.986328125 c 0
 119.173828125 93.646484375 135.81640625 88.626953125 162.76171875 84.9287109375 c 0
 189.706054688 81.23046875 220.877929688 79.3818359375 256.276367188 79.3818359375 c 2
 377.529296875 79.3818359375 l 1
 377.529296875 229.1640625 l 2
 377.529296875 295.206054688 382.15234375 345.133789062 391.397460938 378.947265625 c 0
 400.643554688 412.760742188 416.09765625 437.064453125 437.758789062 451.858398438 c 0
 459.419921875 466.65234375 491.120117188 474.048828125 532.858398438 474.048828125 c 0
 565.615234375 474.048828125 587.012695312 471.803710938 597.05078125 467.3125 c 0
 607.088867188 462.821289062 612.107421875 452.915039062 612.107421875 437.59375 c 0
 612.107421875 422.799804688 607.749023438 413.025390625 599.03125 408.270507812 c 0
 590.313476562 403.515625 573.5390625 401.138671875 548.708007812 401.138671875 c 0
 530.744140625 401.138671875 516.346679688 399.2890625 505.515625 395.590820312 c 0
 494.684570312 391.892578125 485.306640625 385.552734375 477.381835938 376.571289062 c 0
 469.45703125 367.58984375 463.77734375 353.853515625 460.342773438 335.362304688 c 0
 456.908203125 316.870117188 454.3984375 295.076171875 452.813476562 269.98046875 c 0
 451.228515625 244.884765625 450.435546875 211.731445312 450.435546875 170.521484375 c 2
 450.435546875 6.474609375 l 1
 280.048828125 6.474609375 l 2
 223.516601562 6.474609375 183.495117188 7.53125 159.984375 9.64453125 c 0
 136.473632812 11.7578125 118.114257812 15.587890625 104.90625 21.1357421875 c 0
 91.6982421875 26.68359375 77.9619140625 36.853515625 63.697265625 51.646484375 c 0
 41.5068359375 73.30859375 28.5625 99.197265625 24.8642578125 129.311523438 c 0
 21.166015625 159.426757812 19.31640625 250.16796875 19.31640625 401.53515625 c 0
 19.31640625 552.903320312 21.166015625 643.64453125 24.8642578125 673.759765625 c 0
 28.5625 703.874023438 41.5068359375 729.762695312 63.697265625 751.424804688 c 0
EndSplineSet
EndChar

StartChar: B
Encoding: 66 66 2
Width: 594
GlyphClass: 1
Flags: W
LayerCount: 2
Fore
SplineSet
50 710 m 0
 64.6669921875 724.666992188 78.4990234375 734.665039062 91.4990234375 739.998046875 c 0
 104.499023438 745.331054688 123.999023438 748.6640625 149.999023438 749.997070312 c 0
 175.999023438 751.330078125 224.499023438 751.997070312 295.499023438 751.997070312 c 0
 366.499023438 751.997070312 414.999023438 751.330078125 440.999023438 749.997070312 c 0
 466.999023438 748.6640625 486.499023438 745.331054688 499.499023438 739.998046875 c 0
 512.499023438 734.665039062 526.33203125 724.665039062 540.999023438 709.998046875 c 0
 552.33203125 698.665039062 562.165039062 686.498046875 570.498046875 673.498046875 c 0
 578.831054688 660.498046875 582.998046875 649.998046875 582.998046875 641.998046875 c 0
 582.998046875 629.998046875 577.998046875 622.165039062 567.998046875 618.498046875 c 0
 557.998046875 614.831054688 546.331054688 615.998046875 532.998046875 621.998046875 c 0
 519.665039062 627.998046875 508.998046875 637.331054688 500.998046875 649.998046875 c 0
 493.665039062 662.665039062 483.498046875 671.665039062 470.498046875 676.998046875 c 0
 457.498046875 682.331054688 438.665039062 684.998046875 413.998046875 684.998046875 c 2
 345.998046875 684.998046875 l 1
 345.998046875 379.998046875 l 1
 345.998046875 76.998046875 l 1
 421.998046875 76.998046875 l 2
 472.665039062 76.998046875 501.33203125 85.3310546875 507.999023438 101.998046875 c 0
 512.666015625 113.331054688 521.166015625 120.998046875 533.499023438 124.998046875 c 0
 545.83203125 128.998046875 557.165039062 127.998046875 567.498046875 121.998046875 c 0
 577.831054688 115.998046875 582.998046875 106.998046875 582.998046875 94.998046875 c 0
 582.998046875 71.6650390625 574.498046875 53.998046875 557.498046875 41.998046875 c 0
 540.498046875 29.998046875 511.998046875 21.3310546875 471.998046875 15.998046875 c 0
 431.998046875 10.6650390625 373.998046875 7.998046875 297.998046875 7.998046875 c 0
 226.665039062 7.998046875 177.83203125 8.8310546875 151.499023438 10.498046875 c 0
 125.166015625 12.1650390625 105.333007812 15.6650390625 92 20.998046875 c 0
 78.6669921875 26.3310546875 64.6669921875 35.998046875 50 49.998046875 c 0
 29.3330078125 70.6650390625 17.166015625 95.33203125 13.4990234375 123.999023438 c 0
 9.83203125 152.666015625 7.9990234375 238.333007812 7.9990234375 381 c 0
 7.9990234375 523.666992188 9.83203125 609 13.4990234375 637 c 0
 17.166015625 665 29.3330078125 689.333007812 50 710 c 0
277.999023438 379.998046875 m 1
 278 684.998046875 l 1
 198 684.998046875 l 2
 175.333007812 684.998046875 154.166015625 682.998046875 134.499023438 678.998046875 c 0
 114.83203125 674.998046875 101.999023438 670.331054688 95.9990234375 664.998046875 c 0
 81.33203125 650.331054688 73.9990234375 555.498046875 73.9990234375 380.498046875 c 0
 73.9990234375 205.498046875 81.33203125 110.665039062 95.9990234375 95.998046875 c 0
 102.666015625 90.6650390625 115.666015625 86.1650390625 134.999023438 82.498046875 c 0
 154.33203125 78.8310546875 175.33203125 76.998046875 197.999023438 76.998046875 c 2
 277.999023438 76.998046875 l 1
 277.999023438 379.998046875 l 1
EndSplineSet
EndChar

StartChar: C
Encoding: 67 67 3
Width: 590
GlyphClass: 1
Flags: W
LayerCount: 2
Fore
SplineSet
25 720 m 0
 25 735.333007812 30.4990234375 744.666015625 41.4990234375 747.999023438 c 0
 52.4990234375 751.33203125 80.666015625 752.999023438 125.999023438 752.999023438 c 0
 171.33203125 752.999023438 199.665039062 751.33203125 210.998046875 747.999023438 c 0
 222.331054688 744.666015625 227.998046875 735.333007812 227.998046875 720 c 0
 227.998046875 697.333007812 216.665039062 686 193.998046875 686 c 0
 178.665039062 686 169.165039062 679.666992188 165.498046875 667 c 0
 161.831054688 654.333007812 159.998046875 621 159.998046875 567 c 2
 159.998046875 449 l 1
 302.998046875 449 l 1
 446.998046875 449 l 1
 446.998046875 567 l 2
 446.998046875 624.333007812 444.998046875 658.5 440.998046875 669.5 c 0
 436.998046875 680.5 424.998046875 686 404.998046875 686 c 0
 389.665039062 686 378.83203125 688.5 372.499023438 693.5 c 0
 366.166015625 698.5 362.999023438 707.333007812 362.999023438 720 c 0
 362.999023438 735.333007812 368.666015625 744.666015625 379.999023438 747.999023438 c 0
 391.33203125 751.33203125 419.499023438 752.999023438 464.499023438 752.999023438 c 0
 509.499023438 752.999023438 537.666015625 751.33203125 548.999023438 747.999023438 c 0
 560.33203125 744.666015625 565.999023438 735.333007812 565.999023438 720 c 0
 565.999023438 710.666992188 563.33203125 702.666992188 557.999023438 696 c 0
 552.666015625 689.333007812 546.999023438 686 540.999023438 686 c 0
 527.666015625 686 518.666015625 666.5 513.999023438 627.5 c 0
 509.33203125 588.5 510.499023438 546 517.499023438 500 c 0
 524.499023438 454 534.999023438 421.666992188 548.999023438 403 c 0
 562.33203125 385.666992188 571.33203125 365 575.999023438 341 c 0
 580.666015625 317 582.999023438 273.666992188 582.999023438 211 c 0
 582.999023438 171.666992188 582.83203125 143.5 582.499023438 126.5 c 0
 582.166015625 109.5 577.999023438 91.3330078125 569.999023438 72 c 0
 561.999023438 52.6669921875 554.33203125 40.333984375 546.999023438 35.0009765625 c 0
 539.666015625 29.66796875 522.666015625 24.3349609375 495.999023438 19.001953125 c 0
 469.33203125 13.6689453125 443.499023438 10.6689453125 418.499023438 10.001953125 c 0
 393.499023438 9.3349609375 353.33203125 9.001953125 297.999023438 9.001953125 c 0
 226.666015625 9.001953125 177.833007812 9.8349609375 151.5 11.501953125 c 0
 125.166992188 13.1689453125 105.333984375 16.6689453125 92.0009765625 22.001953125 c 0
 78.66796875 27.3349609375 64.66796875 37.001953125 50.0009765625 51.001953125 c 0
 31.333984375 69.6689453125 19.6669921875 88.8359375 15 108.502929688 c 0
 10.3330078125 128.169921875 8 168.002929688 8 228.002929688 c 0
 8 287.3359375 10.3330078125 327.3359375 15 348.002929688 c 0
 19.6669921875 368.669921875 31.333984375 389.669921875 50.0009765625 411.002929688 c 0
 67.333984375 432.3359375 78.6669921875 453.168945312 84 473.501953125 c 0
 89.3330078125 493.834960938 92 527.66796875 92 575.000976562 c 0
 92 624.333984375 90.1669921875 655.166992188 86.5 667.5 c 0
 82.8330078125 679.833007812 73.3330078125 686 58 686 c 0
 36 686 25 697.333007812 25 720 c 0
495.999023438 357 m 0
 483.33203125 372.333007812 417.166015625 380.668945312 297.499023438 382.001953125 c 0
 177.83203125 383.334960938 110.665039062 376.334960938 95.998046875 361.001953125 c 0
 81.3310546875 346.334960938 74.3310546875 301.66796875 74.998046875 227.000976562 c 0
 75.6650390625 152.333984375 83.6650390625 108.666992188 98.998046875 96 c 0
 114.331054688 82.6669921875 185.998046875 77.333984375 313.998046875 80.0009765625 c 2
 505.998046875 86.0009765625 l 1
 511.998046875 209.000976562 l 2
 514.665039062 290.333984375 509.33203125 339.666992188 495.999023438 357 c 0
EndSplineSet
EndChar

StartChar: D
Encoding: 68 68 4
Width: 594
GlyphClass: 1
Flags: W
LayerCount: 2
Fore
SplineSet
48 706 m 0
 62.6669921875 720.666992188 76.5 730.665039062 89.5 735.998046875 c 0
 102.5 741.331054688 122 744.6640625 148 745.997070312 c 0
 174 747.330078125 222.5 747.997070312 293.5 747.997070312 c 0
 364.5 747.997070312 413 747.330078125 439 745.997070312 c 0
 465 744.6640625 484.5 741.331054688 497.5 735.998046875 c 0
 510.5 730.665039062 524.333007812 720.665039062 539 705.998046875 c 0
 550.333007812 694.665039062 560.166015625 682.498046875 568.499023438 669.498046875 c 0
 576.83203125 656.498046875 580.999023438 645.998046875 580.999023438 637.998046875 c 0
 580.999023438 625.998046875 575.999023438 618.165039062 565.999023438 614.498046875 c 0
 555.999023438 610.831054688 544.33203125 611.998046875 530.999023438 617.998046875 c 0
 517.666015625 623.998046875 506.999023438 633.331054688 498.999023438 645.998046875 c 0
 490.33203125 661.331054688 474.999023438 670.998046875 452.999023438 674.998046875 c 0
 430.999023438 678.998046875 378.666015625 680.998046875 295.999023438 680.998046875 c 0
 174.666015625 680.998046875 107.333007812 674.331054688 94 660.998046875 c 0
 79.3330078125 646.331054688 72 551.498046875 72 376.498046875 c 0
 72 201.498046875 79.3330078125 106.665039062 94 91.998046875 c 0
 107.333007812 79.3310546875 177.666015625 72.998046875 304.999023438 72.998046875 c 0
 382.33203125 72.998046875 434.499023438 74.498046875 461.499023438 77.498046875 c 0
 488.499023438 80.498046875 503.33203125 87.3310546875 505.999023438 97.998046875 c 0
 510.666015625 109.331054688 519.166015625 116.998046875 531.499023438 120.998046875 c 0
 543.83203125 124.998046875 555.165039062 123.998046875 565.498046875 117.998046875 c 0
 575.831054688 111.998046875 580.998046875 102.998046875 580.998046875 90.998046875 c 0
 580.998046875 67.6650390625 572.498046875 49.998046875 555.498046875 37.998046875 c 0
 538.498046875 25.998046875 509.998046875 17.3310546875 469.998046875 11.998046875 c 0
 429.998046875 6.6650390625 371.998046875 3.998046875 295.998046875 3.998046875 c 0
 224.665039062 3.998046875 175.83203125 4.8310546875 149.499023438 6.498046875 c 0
 123.166015625 8.1650390625 103.333007812 11.6650390625 90 16.998046875 c 0
 76.6669921875 22.3310546875 62.6669921875 31.998046875 48 45.998046875 c 0
 27.3330078125 66.6650390625 15.166015625 91.33203125 11.4990234375 119.999023438 c 0
 7.83203125 148.666015625 5.9990234375 234.333007812 5.9990234375 377 c 0
 5.9990234375 519.666992188 7.83203125 605 11.4990234375 633 c 0
 15.166015625 661 27.3330078125 685.333007812 48 706 c 0
EndSplineSet
EndChar

StartChar: E
Encoding: 69 69 5
Width: 286
GlyphClass: 1
Flags: W
LayerCount: 2
Fore
SplineSet
63.3349609375 764.038085938 m 0
 89.2236328125 787.28515625 128.060546875 798.911132812 179.836914062 798.911132812 c 0
 212.065429688 798.911132812 233.06640625 796.797851562 242.840820312 792.571289062 c 0
 252.615234375 788.344726562 257.501953125 778.834960938 257.501953125 764.041015625 c 0
 257.501953125 749.247070312 253.540039062 739.47265625 245.615234375 734.717773438 c 0
 237.690429688 729.962890625 221.83984375 727.584960938 198.064453125 727.584960938 c 0
 157.3828125 727.584960938 130.173828125 718.471679688 116.4375 700.244140625 c 0
 102.700195312 682.016601562 95.83203125 645.693359375 95.83203125 591.275390625 c 0
 95.83203125 552.70703125 98.341796875 525.365234375 103.361328125 509.250976562 c 0
 108.379882812 493.13671875 119.078125 479.796875 135.456054688 469.23046875 c 0
 145.494140625 461.833007812 158.5703125 455.228515625 174.684570312 449.416992188 c 0
 190.798828125 443.60546875 204.666992188 440.69921875 216.290039062 440.69921875 c 0
 230.02734375 440.69921875 240.330078125 437.79296875 247.198242188 431.981445312 c 0
 254.06640625 426.169921875 257.5 416.923828125 257.5 404.244140625 c 0
 257.5 391.036132812 253.93359375 381.790039062 246.801757812 376.506835938 c 0
 239.668945312 371.223632812 226.856445312 368.58203125 208.365234375 368.58203125 c 0
 169.268554688 368.58203125 140.73828125 356.5625 122.774414062 332.522460938 c 0
 104.810546875 308.483398438 95.8291015625 269.783203125 95.8291015625 216.421875 c 0
 95.8291015625 162.532226562 102.697265625 126.737304688 116.434570312 109.038085938 c 0
 130.170898438 91.3388671875 157.379882812 82.4892578125 198.061523438 82.4892578125 c 0
 221.30859375 82.4892578125 237.026367188 79.84765625 245.215820312 74.564453125 c 0
 253.404296875 69.2802734375 257.499023438 59.7705078125 257.499023438 46.0341796875 c 0
 257.499023438 28.0703125 245.875976562 16.1826171875 222.629882812 10.37109375 c 0
 199.3828125 4.5595703125 172.569335938 5.748046875 142.189453125 13.9365234375 c 0
 111.810546875 22.1259765625 87.375 35.73046875 68.8837890625 54.7509765625 c 0
 49.3349609375 73.7705078125 37.05078125 92.7900390625 32.0322265625 111.810546875 c 0
 27.013671875 130.831054688 24.50390625 167.549804688 24.50390625 221.967773438 c 0
 24.50390625 271.630859375 26.880859375 306.500976562 31.6357421875 326.578125 c 0
 36.390625 346.655273438 45.900390625 363.826171875 60.1650390625 378.090820312 c 0
 77.072265625 393.412109375 85.6572265625 404.506835938 85.9208984375 411.375 c 0
 86.185546875 418.243164062 77.6005859375 432.772460938 60.166015625 454.962890625 c 0
 42.2021484375 476.625 30.314453125 508.853515625 24.5029296875 551.6484375 c 0
 18.69140625 594.443359375 19.4833984375 636.313476562 26.8798828125 677.259765625 c 0
 34.2763671875 718.205078125 46.427734375 747.130859375 63.3349609375 764.038085938 c 0
EndSplineSet
EndChar

StartChar: F
Encoding: 70 70 6
Width: 544
GlyphClass: 1
Flags: W
LayerCount: 2
Fore
SplineSet
4 707 m 0
 4 722.333007812 10.333984375 731.666992188 23.0009765625 735 c 0
 35.66796875 738.333007812 68.3349609375 740 121.001953125 740 c 0
 173.668945312 740 206.168945312 738.166992188 218.501953125 734.5 c 0
 230.834960938 730.833007812 237.001953125 721.666015625 237.001953125 706.999023438 c 0
 237.001953125 694.33203125 234.001953125 685.499023438 228.001953125 680.499023438 c 0
 222.001953125 675.499023438 211.334960938 672.999023438 196.001953125 672.999023438 c 2
 154.001953125 672.999023438 l 1
 154.001953125 398.999023438 l 2
 154.001953125 218.999023438 157.334960938 118.999023438 164.001953125 98.9990234375 c 0
 168.668945312 88.33203125 180.168945312 81.33203125 198.501953125 77.9990234375 c 0
 216.834960938 74.666015625 251.66796875 72.9990234375 303.000976562 72.9990234375 c 0
 388.333984375 72.9990234375 437.666992188 79.666015625 451 92.9990234375 c 0
 464.333007812 106.33203125 471 150.999023438 471 226.999023438 c 0
 471 274.33203125 469 305.83203125 465 321.499023438 c 0
 461 337.166015625 451.666992188 348.666015625 437 355.999023438 c 0
 424.333007812 363.33203125 415 373.83203125 409 387.499023438 c 0
 403 401.166015625 401.833007812 413.333007812 405.5 424 c 0
 409.166992188 434.666992188 417 440 429 440 c 0
 437 440 447.333007812 435.833007812 460 427.5 c 0
 472.666992188 419.166992188 484.666992188 409.333984375 496 398.000976562 c 0
 515.333007812 379.333984375 527 360.666992188 531 342 c 0
 535 323.333007812 537 283.333007812 537 222 c 0
 537 162 535 121.5 531 100.5 c 0
 527 79.5 517 60.6669921875 501 44 c 0
 485 27.3330078125 467.166992188 16.8330078125 447.5 12.5 c 0
 427.833007812 8.1669921875 384.333007812 6 317 6 c 0
 249 6 205.166992188 8.1669921875 185.5 12.5 c 0
 165.833007812 16.8330078125 147 28.666015625 129 47.9990234375 c 0
 108.333007812 67.9990234375 96.166015625 92.33203125 92.4990234375 120.999023438 c 0
 88.83203125 149.666015625 86.9990234375 236.333007812 86.9990234375 381 c 2
 86.9990234375 673 l 1
 45.9990234375 673 l 2
 30.666015625 673 19.8330078125 675.5 13.5 680.5 c 0
 7.1669921875 685.5 4 694.333007812 4 707 c 0
EndSplineSet
EndChar

StartChar: G
Encoding: 71 71 7
Width: 578
GlyphClass: 1
Flags: W
LayerCount: 2
Fore
SplineSet
48 699 m 0
 66.6669921875 718.333007812 86.3330078125 730.170898438 107 734.50390625 c 0
 127.666992188 738.836914062 174.333984375 741.00390625 247.000976562 741.00390625 c 2
 406.000976562 741.00390625 l 1
 406.000976562 610.00390625 l 2
 406.000976562 571.336914062 407.000976562 541.669921875 409.000976562 521.002929688 c 0
 411.000976562 500.3359375 415.66796875 483.668945312 423.000976562 471.001953125 c 0
 430.333984375 458.334960938 439.666992188 450.16796875 451 446.500976562 c 0
 462.333007812 442.833984375 479 441.000976562 501 441.000976562 c 0
 523 441.000976562 537.666992188 438.66796875 545 434.000976562 c 0
 552.333007812 429.333984375 556 420.666992188 556 408 c 0
 556 393.333007812 551.5 384 542.5 380 c 0
 533.5 376 513.333007812 374 482 374 c 0
 430 374 393.333007812 388.666992188 372 418 c 0
 350.666992188 447.333007812 340 497 340 567 c 2
 340 674 l 1
 226 674 l 2
 150.666992188 674 106 667.333007812 92 654 c 0
 78.6669921875 640.666992188 72 547.5 72 374.5 c 0
 72 201.5 78.6669921875 108 92 94 c 0
 105.333007812 80.6669921875 175 74 301 74 c 0
 377 74 428.166992188 75.6669921875 454.5 79 c 0
 480.833007812 82.3330078125 495.666015625 89 498.999023438 99 c 0
 503.666015625 110.333007812 511.999023438 118 523.999023438 122 c 0
 535.999023438 126 546.999023438 125.166992188 556.999023438 119.5 c 0
 566.999023438 113.833007812 571.999023438 104.666015625 571.999023438 91.9990234375 c 0
 571.999023438 69.33203125 563.83203125 51.9990234375 547.499023438 39.9990234375 c 0
 531.166015625 27.9990234375 503.499023438 19.4990234375 464.499023438 14.4990234375 c 0
 425.499023438 9.4990234375 368.33203125 6.9990234375 292.999023438 6.9990234375 c 0
 221.666015625 6.9990234375 172.999023438 7.9990234375 146.999023438 9.9990234375 c 0
 120.999023438 11.9990234375 101.33203125 15.33203125 87.9990234375 19.9990234375 c 0
 74.666015625 24.666015625 61.3330078125 34.3330078125 48 49 c 0
 27.3330078125 69 15.166015625 93 11.4990234375 121 c 0
 7.83203125 149 5.9990234375 233.333007812 5.9990234375 374 c 0
 5.9990234375 514.666992188 7.83203125 599 11.4990234375 627 c 0
 15.166015625 655 27.3330078125 679 48 699 c 0
EndSplineSet
EndChar

StartChar: H
Encoding: 72 72 8
Width: 582
GlyphClass: 1
Flags: W
LayerCount: 2
Fore
SplineSet
25 709 m 0
 25 722.333007812 29.166015625 731.166992188 37.4990234375 735.5 c 0
 45.83203125 739.833007812 63.6650390625 742 90.998046875 742 c 2
 157.998046875 742 l 1
 157.998046875 592 l 1
 157.998046875 442 l 1
 207.998046875 442 l 1
 257.998046875 442 l 1
 257.998046875 592 l 2
 257.998046875 661.333007812 259.498046875 703.666015625 262.498046875 718.999023438 c 0
 265.498046875 734.33203125 274.998046875 741.999023438 290.998046875 741.999023438 c 0
 306.998046875 741.999023438 316.665039062 734.499023438 319.998046875 719.499023438 c 0
 323.331054688 704.499023438 324.998046875 661.999023438 324.998046875 591.999023438 c 2
 324.998046875 441.999023438 l 1
 381.998046875 441.999023438 l 1
 440.998046875 441.999023438 l 1
 440.998046875 591.999023438 l 1
 440.998046875 741.999023438 l 1
 499.998046875 741.999023438 l 2
 523.331054688 741.999023438 538.831054688 739.666015625 546.498046875 734.999023438 c 0
 554.165039062 730.33203125 557.998046875 721.665039062 557.998046875 708.998046875 c 0
 557.998046875 699.665039062 555.498046875 691.665039062 550.498046875 684.998046875 c 0
 545.498046875 678.331054688 539.998046875 674.998046875 533.998046875 674.998046875 c 0
 520.665039062 674.998046875 511.83203125 655.831054688 507.499023438 617.498046875 c 0
 503.166015625 579.165039062 504.166015625 537.165039062 510.499023438 491.498046875 c 0
 516.83203125 445.831054688 526.999023438 414.331054688 540.999023438 396.998046875 c 0
 555.666015625 379.665039062 564.833007812 358.998046875 568.5 334.998046875 c 0
 572.166992188 310.998046875 574 268.331054688 574 206.998046875 c 2
 574 122.998046875 l 2
 574 106.331054688 570 88.498046875 562 69.498046875 c 0
 554 50.498046875 546.5 38.498046875 539.5 33.498046875 c 0
 532.5 28.498046875 515.5 23.1650390625 488.5 17.498046875 c 0
 461.5 11.8310546875 436 8.8310546875 412 8.498046875 c 0
 388 8.1650390625 349 7.998046875 295 7.998046875 c 0
 223.666992188 7.998046875 175 8.998046875 149 10.998046875 c 0
 123 12.998046875 103.333007812 16.3310546875 90 20.998046875 c 0
 76.6669921875 25.6650390625 63.333984375 35.33203125 50.0009765625 49.9990234375 c 0
 31.333984375 67.33203125 19.6669921875 85.83203125 15 105.499023438 c 0
 10.3330078125 125.166015625 8 164.666015625 8 223.999023438 c 0
 8 282.666015625 10.3330078125 322.166015625 15 342.499023438 c 0
 19.6669921875 362.83203125 31.333984375 383.665039062 50.0009765625 404.998046875 c 0
 67.333984375 425.665039062 78.5009765625 445.83203125 83.5009765625 465.499023438 c 0
 88.5009765625 485.166015625 91.0009765625 518.333007812 91.0009765625 565 c 0
 91.0009765625 614.333007812 89.16796875 645 85.5009765625 657 c 0
 81.833984375 669 72.6669921875 675 58 675 c 0
 36 675 25 686.333007812 25 709 c 0
488.999023438 352.000976562 m 0
 476.999023438 366.66796875 411.999023438 374.500976562 293.999023438 375.500976562 c 0
 175.999023438 376.500976562 109.33203125 369.66796875 93.9990234375 355.000976562 c 0
 79.33203125 341.66796875 72.4990234375 297.834960938 73.4990234375 223.501953125 c 0
 74.4990234375 149.168945312 82.666015625 105.668945312 97.9990234375 93.001953125 c 0
 113.33203125 80.3349609375 183.665039062 75.66796875 308.998046875 79.0009765625 c 2
 499.998046875 83.0009765625 l 1
 504.998046875 205.000976562 l 2
 507.665039062 285.66796875 502.33203125 334.66796875 488.999023438 352.000976562 c 0
EndSplineSet
EndChar

StartChar: I
Encoding: 73 73 9
Width: 241
GlyphClass: 1
Flags: W
LayerCount: 2
Fore
SplineSet
21.130859375 734.306640625 m 0
 21.130859375 749.627929688 32.0947265625 760.061523438 54.0205078125 765.609375 c 0
 75.9462890625 771.157226562 100.778320312 770.892578125 128.515625 764.81640625 c 0
 156.252929688 758.741210938 178.046875 747.778320312 193.896484375 731.927734375 c 0
 208.690429688 717.133789062 219.256835938 688.868164062 225.596679688 647.129882812 c 0
 231.936523438 605.391601562 232.861328125 562.728515625 228.370117188 519.141601562 c 0
 223.87890625 475.5546875 214.765625 444.250976562 201.029296875 425.23046875 c 0
 188.348632812 406.739257812 182.008789062 393.53125 182.008789062 385.606445312 c 0
 182.008789062 377.681640625 188.876953125 366.322265625 202.614257812 351.528320312 c 0
 214.765625 338.848632812 222.293945312 321.809570312 225.19921875 300.412109375 c 0
 228.10546875 279.014648438 228.237304688 241.899414062 225.595703125 189.06640625 c 0
 223.482421875 153.66796875 219.916015625 121.04296875 214.896484375 91.1923828125 c 0
 209.877929688 61.341796875 204.462890625 44.0390625 198.651367188 39.2841796875 c 0
 193.368164062 34 180.952148438 28.4521484375 161.404296875 22.640625 c 0
 141.856445312 16.8291015625 121.779296875 13.130859375 101.173828125 11.5458984375 c 0
 64.1904296875 7.3193359375 41.6044921875 6.52734375 33.4150390625 9.1689453125 c 0
 25.2265625 11.810546875 21.1318359375 21.056640625 21.1318359375 36.9072265625 c 0
 21.1318359375 51.701171875 25.3583984375 61.7392578125 33.8115234375 67.0224609375 c 0
 42.2646484375 72.3056640625 59.9638671875 76.2685546875 86.9091796875 78.91015625 c 2
 150.309570312 83.6650390625 l 1
 155.856445312 186.689453125 l 2
 158.498046875 243.749023438 152.290039062 285.487304688 137.232421875 311.904296875 c 0
 122.174804688 338.321289062 96.6826171875 351.529296875 60.755859375 351.529296875 c 0
 47.0185546875 351.529296875 36.98046875 354.435546875 30.640625 360.247070312 c 0
 24.30078125 366.05859375 21.130859375 375.040039062 21.130859375 387.19140625 c 0
 21.130859375 399.342773438 24.30078125 408.060546875 30.640625 413.34375 c 0
 36.98046875 418.626953125 47.0185546875 421.268554688 60.755859375 421.268554688 c 0
 96.154296875 421.268554688 121.514648438 434.609375 136.8359375 461.290039062 c 0
 152.157226562 487.970703125 158.497070312 530.10546875 155.85546875 587.693359375 c 2
 150.30859375 689.133789062 l 1
 86.908203125 693.888671875 l 2
 61.01953125 696.530273438 43.5849609375 700.625 34.603515625 706.172851562 c 0
 25.6220703125 711.720703125 21.130859375 721.098632812 21.130859375 734.306640625 c 0
EndSplineSet
EndChar

StartChar: J
Encoding: 74 74 10
Width: 580
GlyphClass: 1
Flags: W
LayerCount: 2
Fore
SplineSet
24 717 m 0
 24 733 36.9990234375 742.500976562 62.9990234375 745.500976562 c 0
 88.9990234375 748.500976562 166.666015625 750.000976562 295.999023438 750.000976562 c 0
 448.666015625 750.000976562 532.999023438 747.333984375 548.999023438 742.000976562 c 0
 559.666015625 738.66796875 563.999023438 730.334960938 561.999023438 717.001953125 c 2
 561.999023438 713.001953125 l 2
 559.33203125 699.668945312 538.999023438 676.8359375 500.999023438 644.502929688 c 0
 462.999023438 612.169921875 401.33203125 566.002929688 315.999023438 506.002929688 c 2
 74.9990234375 336.002929688 l 1
 74.9990234375 226.002929688 l 2
 74.9990234375 154.002929688 79.33203125 110.002929688 87.9990234375 94.0029296875 c 0
 97.33203125 80.669921875 166.665039062 75.0029296875 295.998046875 77.0029296875 c 2
 488.998046875 83.0029296875 l 1
 493.998046875 212.002929688 l 2
 495.331054688 261.3359375 494.6640625 296.3359375 491.997070312 317.002929688 c 0
 489.330078125 337.669921875 482.663085938 352.669921875 471.99609375 362.002929688 c 0
 455.99609375 375.3359375 447.829101562 392.668945312 447.49609375 414.001953125 c 0
 447.163085938 435.334960938 455.330078125 446.001953125 471.997070312 446.001953125 c 0
 478.6640625 446.001953125 487.997070312 442.668945312 499.997070312 436.001953125 c 0
 511.997070312 429.334960938 522.330078125 421.334960938 530.997070312 412.001953125 c 0
 545.6640625 397.334960938 554.831054688 378.834960938 558.498046875 356.501953125 c 0
 562.165039062 334.168945312 563.998046875 289.3359375 563.998046875 222.002929688 c 0
 563.998046875 137.3359375 559.998046875 84.3359375 551.998046875 63.0029296875 c 0
 540.665039062 35.669921875 513.998046875 18.669921875 471.998046875 12.0029296875 c 0
 445.331054688 8.0029296875 385.998046875 6.0029296875 293.998046875 6.0029296875 c 2
 286.998046875 6.0029296875 l 1
 213.998046875 6.0029296875 l 2
 198.665039062 6.0029296875 179.498046875 6.8359375 156.498046875 8.5029296875 c 0
 133.498046875 10.169921875 117.998046875 11.169921875 109.998046875 11.5029296875 c 0
 101.998046875 11.8359375 90.6650390625 14.6689453125 75.998046875 20.001953125 c 0
 61.3310546875 25.3349609375 52.498046875 29.16796875 49.498046875 31.5009765625 c 0
 46.498046875 33.833984375 41.1650390625 40.1669921875 33.498046875 50.5 c 0
 25.8310546875 60.8330078125 21.8310546875 69 21.498046875 75 c 0
 21.1650390625 81 19.498046875 92.8330078125 16.498046875 110.5 c 0
 13.498046875 128.166992188 11.8310546875 142.666992188 11.498046875 154 c 0
 11.1650390625 165.333007812 10.6650390625 183.666015625 9.998046875 208.999023438 c 2
 9.998046875 212.999023438 l 2
 8.6650390625 318.33203125 11.33203125 376.665039062 17.9990234375 387.998046875 c 0
 24.666015625 397.331054688 97.3330078125 447.998046875 236 539.998046875 c 2
 438 674.998046875 l 1
 232 679.998046875 l 2
 179.333007812 680.665039062 140.833007812 681.33203125 116.5 681.999023438 c 0
 92.1669921875 682.666015625 72.1669921875 684.666015625 56.5 687.999023438 c 0
 40.8330078125 691.33203125 31.5 694.83203125 28.5 698.499023438 c 0
 25.5 702.166015625 24 708.333007812 24 717 c 0
EndSplineSet
EndChar

StartChar: K
Encoding: 75 75 11
Width: 586
GlyphClass: 1
Flags: W
LayerCount: 2
Fore
SplineSet
52 700 m 0
 62.6669921875 711.333007812 74.501953125 721.1640625 87.501953125 729.497070312 c 0
 100.501953125 737.830078125 110.668945312 741.997070312 118.001953125 741.997070312 c 0
 130.001953125 741.997070312 137.834960938 736.997070312 141.501953125 726.997070312 c 0
 145.168945312 716.997070312 144.001953125 705.6640625 138.001953125 692.997070312 c 0
 132.001953125 680.330078125 122.668945312 669.997070312 110.001953125 661.997070312 c 0
 97.3349609375 653.330078125 88.66796875 641.330078125 84.0009765625 625.997070312 c 0
 79.333984375 610.6640625 77.0009765625 582.6640625 77.0009765625 541.997070312 c 2
 77.0009765625 441.997070312 l 1
 273.000976562 441.997070312 l 2
 404.333984375 441.997070312 476.666992188 448.330078125 490 460.997070312 c 0
 504.666992188 475.6640625 511.333984375 509.1640625 510.000976562 561.497070312 c 0
 508.66796875 613.830078125 500.334960938 645.997070312 485.001953125 657.997070312 c 0
 476.334960938 665.330078125 469.66796875 675.830078125 465.000976562 689.497070312 c 0
 460.333984375 703.1640625 459.166992188 715.331054688 461.5 725.998046875 c 0
 463.833007812 736.665039062 469 741.998046875 477 741.998046875 c 0
 481.666992188 741.998046875 489.833984375 737.831054688 501.500976562 729.498046875 c 0
 513.16796875 721.165039062 524.66796875 711.33203125 536.000976562 699.999023438 c 0
 553.333984375 682.666015625 564.333984375 665.333007812 569.000976562 648 c 0
 573.66796875 630.666992188 576.000976562 598 576.000976562 550 c 0
 576.000976562 526 575.833984375 507.5 575.500976562 494.5 c 0
 575.16796875 481.5 573.16796875 467.666992188 569.500976562 453 c 0
 565.833984375 438.333007812 562.333984375 427.666015625 559.000976562 420.999023438 c 0
 555.66796875 414.33203125 548.16796875 407.33203125 536.500976562 399.999023438 c 0
 524.833984375 392.666015625 513.333984375 387.833007812 502.000976562 385.5 c 0
 490.66796875 383.166992188 473.66796875 381 451.000976562 379 c 0
 428.333984375 377 406.000976562 375.833007812 384.000976562 375.5 c 0
 362.000976562 375.166992188 331.66796875 375 293.000976562 375 c 2
 77.0009765625 375 l 1
 77.0009765625 245 l 2
 77.0009765625 157.666992188 83.66796875 107.5 97.0009765625 94.5 c 0
 110.333984375 81.5 179.666992188 75 305 75 c 0
 381 75 432.166992188 76.6669921875 458.5 80 c 0
 484.833007812 83.3330078125 499.666015625 90 502.999023438 100 c 0
 507.666015625 111.333007812 515.999023438 119 527.999023438 123 c 0
 539.999023438 127 550.999023438 126.166992188 560.999023438 120.5 c 0
 570.999023438 114.833007812 575.999023438 105.666015625 575.999023438 92.9990234375 c 0
 575.999023438 70.33203125 567.83203125 52.9990234375 551.499023438 40.9990234375 c 0
 535.166015625 28.9990234375 507.499023438 20.4990234375 468.499023438 15.4990234375 c 0
 429.499023438 10.4990234375 372.33203125 7.9990234375 296.999023438 7.9990234375 c 0
 225.666015625 7.9990234375 176.999023438 8.9990234375 150.999023438 10.9990234375 c 0
 124.999023438 12.9990234375 105.33203125 16.33203125 91.9990234375 20.9990234375 c 0
 78.666015625 25.666015625 65.3330078125 35.3330078125 52 50 c 0
 31.3330078125 70 19.166015625 94 15.4990234375 122 c 0
 11.83203125 150 9.9990234375 234.333007812 9.9990234375 375 c 0
 9.9990234375 515.666992188 11.83203125 600 15.4990234375 628 c 0
 19.166015625 656 31.3330078125 680 52 700 c 0
EndSplineSet
EndChar

StartChar: L
Encoding: 76 76 12
Width: 582
GlyphClass: 1
Flags: W
LayerCount: 2
Fore
SplineSet
50 699 m 0
 63.3330078125 713.666992188 76.66796875 723.3359375 90.0009765625 728.002929688 c 0
 103.333984375 732.669921875 122.833984375 736.002929688 148.500976562 738.002929688 c 0
 174.16796875 740.002929688 221.834960938 741.002929688 291.501953125 741.002929688 c 0
 361.168945312 741.002929688 408.668945312 740.002929688 434.001953125 738.002929688 c 0
 459.334960938 736.002929688 478.66796875 732.669921875 492.000976562 728.002929688 c 0
 505.333984375 723.3359375 519.333984375 713.668945312 534.000976562 699.001953125 c 0
 554.000976562 679.001953125 565.66796875 654.668945312 569.000976562 626.001953125 c 0
 572.333984375 597.334960938 574.000976562 508.66796875 574.000976562 360.000976562 c 0
 574.000976562 214.66796875 572.500976562 127.000976562 569.500976562 97.0009765625 c 0
 566.500976562 67.0009765625 556.000976562 46.0009765625 538.000976562 34.0009765625 c 0
 514.000976562 15.333984375 494.66796875 6.333984375 480.000976562 7.0009765625 c 0
 470.66796875 7.0009765625 464.334960938 12.333984375 461.001953125 23.0009765625 c 0
 457.668945312 33.66796875 458.168945312 45.0009765625 462.501953125 57.0009765625 c 0
 466.834960938 69.0009765625 473.66796875 77.0009765625 483.000976562 81.0009765625 c 0
 492.333984375 84.333984375 498.833984375 104.000976562 502.500976562 140.000976562 c 0
 506.16796875 176.000976562 508.000976562 250.000976562 508.000976562 362.000976562 c 0
 508.000976562 543.333984375 501.333984375 640.666992188 488.000976562 654 c 0
 474.66796875 667.333007812 409.16796875 674 291.500976562 674 c 0
 173.833984375 674 108.333984375 667.333007812 95.0009765625 654 c 0
 81.66796875 640.666992188 75.0009765625 546 75.0009765625 370 c 0
 75.0009765625 246.666992188 76.66796875 170.833984375 80.0009765625 142.500976562 c 0
 83.333984375 114.16796875 92.6669921875 95.66796875 108 87.0009765625 c 0
 120.666992188 79.0009765625 130 68.66796875 136 56.0009765625 c 0
 142 43.333984375 143.166992188 32.0009765625 139.5 22.0009765625 c 0
 135.833007812 12.0009765625 128 7.0009765625 116 7.0009765625 c 0
 108.666992188 7.0009765625 98.5 11.16796875 85.5 19.5009765625 c 0
 72.5 27.833984375 60.6669921875 37.6669921875 50 49 c 0
 29.3330078125 69 17.166015625 93 13.4990234375 121 c 0
 9.83203125 149 7.9990234375 233.333007812 7.9990234375 374 c 0
 7.9990234375 514.666992188 9.83203125 599 13.4990234375 627 c 0
 17.166015625 655 29.3330078125 679 50 699 c 0
EndSplineSet
EndChar

StartChar: M
Encoding: 77 77 13
Width: 582
GlyphClass: 1
Flags: W
LayerCount: 2
Fore
SplineSet
50 699 m 0
 60.6669921875 710.333007812 72.5 720.166992188 85.5 728.5 c 0
 98.5 736.833007812 108.666992188 741 116 741 c 0
 128 741 135.833007812 736 139.5 726 c 0
 143.166992188 716 142 704.666992188 136 692 c 0
 130 679.333007812 120.666992188 669 108 661 c 0
 95.3330078125 652.333007812 86.666015625 640.333007812 81.9990234375 625 c 0
 77.33203125 609.666992188 74.9990234375 581.666992188 74.9990234375 541 c 2
 74.9990234375 441 l 1
 290.999023438 441 l 1
 507.999023438 441 l 1
 507.999023438 549 l 2
 507.999023438 589.666992188 505.999023438 618.666992188 501.999023438 636 c 0
 497.999023438 653.333007812 491.666015625 663.666015625 482.999023438 666.999023438 c 0
 475.666015625 670.999023438 469.666015625 676.999023438 464.999023438 684.999023438 c 0
 460.33203125 692.999023438 457.999023438 700.999023438 457.999023438 708.999023438 c 0
 457.999023438 722.33203125 461.999023438 731.499023438 469.999023438 736.499023438 c 0
 477.999023438 741.499023438 488.33203125 741.33203125 500.999023438 735.999023438 c 0
 513.666015625 730.666015625 526.999023438 721.333007812 540.999023438 708 c 0
 552.33203125 696.666992188 559.999023438 682.833984375 563.999023438 666.500976562 c 0
 567.999023438 650.16796875 570.666015625 622.500976562 571.999023438 583.500976562 c 0
 573.33203125 544.500976562 573.999023438 477.333984375 573.999023438 382.000976562 c 0
 573.999023438 237.333984375 572.33203125 150.666992188 568.999023438 122 c 0
 565.666015625 93.3330078125 553.999023438 69 533.999023438 49 c 0
 509.999023438 25 473.499023438 11 424.499023438 7 c 0
 375.499023438 3 342.33203125 11.3330078125 324.999023438 32 c 0
 315.666015625 43.3330078125 307.833007812 49 301.5 49 c 0
 295.166992188 49 284.666992188 43.3330078125 270 32 c 0
 259.333007812 25.3330078125 242.833007812 19.5 220.5 14.5 c 0
 198.166992188 9.5 177 7 157 7 c 0
 124.333007812 7 100.666015625 10 85.9990234375 16 c 0
 71.33203125 22 56.9990234375 33.6669921875 42.9990234375 51 c 0
 26.9990234375 71.6669921875 17.166015625 98.833984375 13.4990234375 132.500976562 c 0
 9.83203125 166.16796875 7.9990234375 248.000976562 7.9990234375 378.000976562 c 0
 7.9990234375 517.333984375 9.83203125 600.666992188 13.4990234375 628 c 0
 17.166015625 655.333007812 29.3330078125 679 50 699 c 0
508 242.000976562 m 2
 507.999023438 374.000976562 l 1
 290.999023438 374.000976562 l 1
 74.9990234375 374.000976562 l 1
 74.9990234375 242.000976562 l 2
 74.9990234375 202.66796875 75.9990234375 172.66796875 77.9990234375 152.000976562 c 0
 79.9990234375 131.333984375 84.9990234375 114.500976562 92.9990234375 101.500976562 c 0
 100.999023438 88.5009765625 111.499023438 80.66796875 124.499023438 78.0009765625 c 0
 137.499023438 75.333984375 155.33203125 75.333984375 177.999023438 78.0009765625 c 0
 213.999023438 81.333984375 237.666015625 95.6669921875 248.999023438 121 c 0
 253.666015625 130.333007812 260.333007812 138.666015625 269 145.999023438 c 0
 277.666992188 153.33203125 285.333984375 156.999023438 292.000976562 156.999023438 c 0
 298.66796875 156.999023438 306.16796875 153.33203125 314.500976562 145.999023438 c 0
 322.833984375 138.666015625 329.000976562 130.333007812 333.000976562 121 c 0
 344.333984375 95.6669921875 368.333984375 81.333984375 405.000976562 78.0009765625 c 0
 428.333984375 75.333984375 446.166992188 75.333984375 458.5 78.0009765625 c 0
 470.833007812 80.66796875 481 88.5009765625 489 101.500976562 c 0
 497 114.500976562 502.166992188 131.333984375 504.5 152.000976562 c 0
 506.833007812 172.66796875 508 202.66796875 508 242.000976562 c 2
EndSplineSet
EndChar

StartChar: N
Encoding: 78 78 14
Width: 588
GlyphClass: 1
Flags: W
LayerCount: 2
Fore
SplineSet
50 698 m 0
 63.3330078125 712.666992188 76.666015625 722.333984375 89.9990234375 727.000976562 c 0
 103.33203125 731.66796875 122.83203125 735.000976562 148.499023438 737.000976562 c 0
 174.166015625 739.000976562 221.833007812 740.000976562 291.5 740.000976562 c 0
 361.166992188 740.000976562 408.666992188 739.000976562 434 737.000976562 c 0
 459.333007812 735.000976562 478.666015625 731.66796875 491.999023438 727.000976562 c 0
 505.33203125 722.333984375 519.33203125 712.666992188 533.999023438 698 c 0
 553.999023438 678 565.666015625 653.666992188 568.999023438 625 c 0
 572.33203125 596.333007812 573.999023438 507.666015625 573.999023438 358.999023438 c 2
 573.999023438 301.999023438 l 2
 573.999023438 255.33203125 574.33203125 222.33203125 574.999023438 202.999023438 c 0
 575.666015625 183.666015625 574.333007812 159.999023438 571 131.999023438 c 0
 567.666992188 103.999023438 565.166992188 85.83203125 563.5 77.4990234375 c 0
 561.833007812 69.166015625 555.666015625 57.9990234375 544.999023438 43.9990234375 c 0
 534.33203125 29.9990234375 525.499023438 22.166015625 518.499023438 20.4990234375 c 0
 511.499023438 18.83203125 496.83203125 15.83203125 474.499023438 11.4990234375 c 0
 452.166015625 7.166015625 432.999023438 5.166015625 416.999023438 5.4990234375 c 0
 400.999023438 5.83203125 374.666015625 5.9990234375 337.999023438 5.9990234375 c 2
 294.999023438 5.9990234375 l 2
 223.666015625 5.9990234375 174.999023438 6.9990234375 148.999023438 8.9990234375 c 0
 122.999023438 10.9990234375 103.33203125 14.33203125 89.9990234375 18.9990234375 c 0
 76.666015625 23.666015625 63.3330078125 33.3330078125 50 48 c 0
 29.3330078125 68 17.166015625 92 13.4990234375 120 c 0
 9.83203125 148 7.9990234375 232.333007812 7.9990234375 373 c 0
 7.9990234375 513.666992188 9.83203125 598 13.4990234375 626 c 0
 17.166015625 654 29.3330078125 678 50 698 c 0
488 653 m 0
 474.666992188 666.333007812 409.166992188 673 291.5 673 c 0
 173.833007812 673 108 666.333007812 94 653 c 0
 88.6669921875 647.666992188 84.1669921875 633.666992188 80.5 611 c 0
 76.8330078125 588.333007812 75 563.333007812 75 536 c 2
 75 440 l 1
 291 440 l 1
 508 440 l 1
 508 536 l 2
 508 563.333007812 506 588.333007812 502 611 c 0
 498 633.666992188 493.333007812 647.666992188 488 653 c 0
505 228 m 1
 510.000976562 373.000976562 l 1
 291.000976562 373.000976562 l 1
 75.0009765625 373.000976562 l 1
 75.0009765625 241.000976562 l 2
 75.0009765625 153.66796875 82.66796875 103.66796875 98.0009765625 91.0009765625 c 0
 113.333984375 78.333984375 183.666992188 73.6669921875 309 77 c 2
 500 81 l 1
 505 228 l 1
EndSplineSet
EndChar

StartChar: O
Encoding: 79 79 15
Width: 432
GlyphClass: 1
Flags: W
LayerCount: 2
Fore
SplineSet
65.0478515625 745.009765625 m 0
 65.0478515625 761.387695312 72.9716796875 771.424804688 88.8212890625 775.123046875 c 0
 104.671875 778.821289062 149.580078125 780.670898438 223.546875 780.670898438 c 0
 297.512695312 780.670898438 342.420898438 778.821289062 358.271484375 775.123046875 c 0
 374.122070312 771.424804688 382.046875 761.38671875 382.046875 745.008789062 c 0
 382.046875 731.271484375 378.083984375 722.025390625 370.159179688 717.270507812 c 0
 362.234375 712.515625 346.913085938 710.138671875 324.1953125 710.138671875 c 2
 267.927734375 710.138671875 l 1
 339.252929688 414.536132812 l 2
 393.142578125 192.635742188 421.408203125 69.005859375 424.049804688 43.6455078125 c 0
 427.219726562 20.3994140625 424.049804688 7.9833984375 414.540039062 6.3984375 c 0
 413.483398438 5.8701171875 406.615234375 5.60546875 393.934570312 5.60546875 c 0
 383.368164062 5.60546875 375.443359375 7.1904296875 370.16015625 10.361328125 c 0
 364.876953125 13.53125 358.405273438 24.6259765625 350.744140625 43.6455078125 c 0
 343.083007812 62.666015625 335.686523438 85.9130859375 328.553710938 113.38671875 c 0
 321.421875 140.860351562 310.987304688 185.240234375 297.25 246.52734375 c 0
 264.493164062 394.459960938 244.416015625 487.182617188 237.018554688 524.694335938 c 0
 235.961914062 531.5625 232.263671875 527.3359375 225.923828125 512.014648438 c 0
 213.244140625 480.842773438 195.809570312 423.518554688 173.619140625 340.041992188 c 0
 127.125976562 160.408203125 97.275390625 57.6474609375 84.0673828125 31.759765625 c 0
 71.916015625 14.8525390625 58.9716796875 6.134765625 45.2353515625 5.6064453125 c 0
 36.25390625 5.6064453125 28.4609375 7.4560546875 21.8564453125 11.154296875 c 0
 15.251953125 14.8525390625 11.9501953125 19.607421875 11.9501953125 25.4189453125 c 0
 11.9501953125 31.759765625 36.25390625 129.10546875 84.8603515625 317.456054688 c 0
 133.466796875 505.806640625 165.6953125 626.3984375 181.545898438 679.231445312 c 0
 184.715820312 691.912109375 182.866210938 700.233398438 175.998046875 704.1953125 c 0
 169.129882812 708.158203125 153.015625 710.139648438 127.655273438 710.139648438 c 0
 102.294921875 710.139648438 85.5205078125 712.516601562 77.3310546875 717.271484375 c 0
 69.142578125 722.026367188 65.0478515625 731.272460938 65.0478515625 745.009765625 c 0
EndSplineSet
EndChar

StartChar: Q
Encoding: 81 81 16
Width: 258
GlyphClass: 1
Flags: W
LayerCount: 2
Fore
SplineSet
18 708 m 0
 18 723.333007812 24.3330078125 732.666015625 37 735.999023438 c 0
 49.6669921875 739.33203125 82.333984375 740.999023438 135.000976562 740.999023438 c 0
 187.66796875 740.999023438 220.16796875 739.166015625 232.500976562 735.499023438 c 0
 244.833984375 731.83203125 251.000976562 722.665039062 251.000976562 707.998046875 c 0
 251.000976562 695.331054688 248.000976562 686.498046875 242.000976562 681.498046875 c 0
 236.000976562 676.498046875 225.333984375 673.998046875 210.000976562 673.998046875 c 2
 168.000976562 673.998046875 l 1
 168.000976562 373.998046875 l 1
 168.000976562 73.998046875 l 1
 210.000976562 73.998046875 l 2
 225.333984375 73.998046875 236.000976562 71.6650390625 242.000976562 66.998046875 c 0
 248.000976562 62.3310546875 251.000976562 53.3310546875 251.000976562 39.998046875 c 0
 251.000976562 24.6650390625 244.833984375 15.33203125 232.500976562 11.9990234375 c 0
 220.16796875 8.666015625 187.66796875 6.9990234375 135.000976562 6.9990234375 c 0
 82.333984375 6.9990234375 49.6669921875 8.83203125 37 12.4990234375 c 0
 24.3330078125 16.166015625 18 25.3330078125 18 40 c 0
 18 52.6669921875 21.1669921875 61.5 27.5 66.5 c 0
 33.8330078125 71.5 44.666015625 74 59.9990234375 74 c 2
 100.999023438 74 l 1
 100.999023438 374 l 1
 100.999023438 674 l 1
 59.9990234375 674 l 2
 44.666015625 674 33.8330078125 676.5 27.5 681.5 c 0
 21.1669921875 686.5 18 695.333007812 18 708 c 0
EndSplineSet
EndChar

StartChar: R
Encoding: 82 82 17
Width: 590
GlyphClass: 1
Flags: W
LayerCount: 2
Fore
SplineSet
45 733 m 0
 59.6669921875 747.666992188 140.327148438 754.999023438 286.994140625 754.999023438 c 0
 433.661132812 754.999023438 514.328125 747.666015625 528.995117188 732.999023438 c 0
 534.328125 727.666015625 538.995117188 714.999023438 542.995117188 694.999023438 c 0
 546.995117188 674.999023438 548.995117188 653.666015625 548.995117188 630.999023438 c 0
 548.995117188 596.33203125 546.995117188 574.33203125 542.995117188 564.999023438 c 0
 538.995117188 555.666015625 529.828125 550.999023438 515.495117188 550.999023438 c 0
 501.162109375 550.999023438 491.829101562 555.166015625 487.49609375 563.499023438 c 0
 483.163085938 571.83203125 480.99609375 589.999023438 480.99609375 617.999023438 c 2
 480.99609375 685.999023438 l 1
 404.99609375 685.999023438 l 1
 329.99609375 685.999023438 l 1
 329.99609375 566.999023438 l 1
 329.99609375 448.999023438 l 1
 416.99609375 448.999023438 l 2
 449.663085938 448.999023438 475.330078125 446.33203125 493.997070312 440.999023438 c 0
 512.6640625 435.666015625 528.997070312 425.666015625 542.997070312 410.999023438 c 0
 561.6640625 394.999023438 572.997070312 376.83203125 576.997070312 356.499023438 c 0
 580.997070312 336.166015625 582.997070312 290.333007812 582.997070312 219 c 2
 582.997070312 130.5 l 2
 582.997070312 112.833007812 578.830078125 93.8330078125 570.497070312 73.5 c 0
 562.1640625 53.1669921875 554.6640625 40.6669921875 547.997070312 36 c 0
 541.330078125 31.3330078125 523.997070312 25.666015625 495.997070312 18.9990234375 c 0
 467.997070312 12.33203125 442.330078125 8.9990234375 418.997070312 8.9990234375 c 2
 297.997070312 8.9990234375 l 2
 226.6640625 8.9990234375 177.831054688 9.83203125 151.498046875 11.4990234375 c 0
 125.165039062 13.166015625 105.33203125 16.666015625 91.9990234375 21.9990234375 c 0
 78.666015625 27.33203125 64.666015625 36.9990234375 49.9990234375 50.9990234375 c 0
 31.33203125 69.666015625 19.6650390625 88.8330078125 14.998046875 108.5 c 0
 10.3310546875 128.166992188 7.998046875 167 7.998046875 225 c 0
 7.998046875 280.333007812 10.3310546875 319.5 14.998046875 342.5 c 0
 19.6650390625 365.5 29.33203125 386.333007812 43.9990234375 405 c 0
 59.33203125 423.666992188 74.33203125 435.666992188 88.9990234375 441 c 0
 103.666015625 446.333007812 130.666015625 449 169.999023438 449 c 2
 260.999023438 449 l 1
 260.999023438 567 l 1
 260.999023438 686 l 1
 185.999023438 686 l 1
 109.999023438 686 l 1
 109.999023438 618 l 2
 109.999023438 587.333007812 107.666015625 568.5 102.999023438 561.5 c 0
 98.33203125 554.5 86.33203125 551 66.9990234375 551 c 0
 47.666015625 551 35.8330078125 555 31.5 563 c 0
 27.1669921875 571 25 593.666992188 25 631 c 0
 25 653.666992188 27 675 31 695 c 0
 35 715 39.6669921875 727.666992188 45 733 c 0
495.993164062 356.999023438 m 0
 483.326171875 372.33203125 417.16015625 380.66796875 297.493164062 382.000976562 c 0
 177.826171875 383.333984375 110.659179688 376.333984375 95.9921875 361.000976562 c 0
 81.3251953125 346.333984375 74.3251953125 301.666992188 74.9921875 227 c 0
 75.6591796875 152.333007812 83.6591796875 108.666015625 98.9921875 95.9990234375 c 0
 114.325195312 82.666015625 185.9921875 77.3330078125 313.9921875 80 c 2
 505.9921875 86 l 1
 511.9921875 209 l 2
 514.659179688 290.333007812 509.326171875 339.666015625 495.993164062 356.999023438 c 0
EndSplineSet
EndChar

StartChar: S
Encoding: 83 83 18
Width: 588
GlyphClass: 1
Flags: W
LayerCount: 2
Fore
SplineSet
125 717 m 0
 125 733 133.498046875 742.498046875 150.498046875 745.498046875 c 0
 167.498046875 748.498046875 217.831054688 749.998046875 301.498046875 749.998046875 c 0
 385.165039062 749.998046875 435.665039062 748.498046875 452.998046875 745.498046875 c 0
 470.331054688 742.498046875 478.998046875 732.998046875 478.998046875 716.998046875 c 0
 478.998046875 702.331054688 474.331054688 692.998046875 464.998046875 688.998046875 c 0
 455.665039062 684.998046875 434.998046875 682.998046875 402.998046875 682.998046875 c 2
 327.998046875 682.998046875 l 1
 327.998046875 563.998046875 l 1
 327.998046875 445.998046875 l 1
 418.998046875 445.998046875 l 2
 458.331054688 445.998046875 485.331054688 443.331054688 499.998046875 437.998046875 c 0
 514.665039062 432.665039062 529.665039062 420.665039062 544.998046875 401.998046875 c 0
 559.665039062 382.665039062 569.33203125 361.33203125 573.999023438 337.999023438 c 0
 578.666015625 314.666015625 580.999023438 273.999023438 580.999023438 215.999023438 c 0
 580.999023438 155.999023438 578.999023438 115.33203125 574.999023438 93.9990234375 c 0
 570.999023438 72.666015625 561.666015625 54.666015625 546.999023438 39.9990234375 c 0
 525.666015625 19.33203125 487.833007812 7.9990234375 433.5 5.9990234375 c 0
 379.166992188 3.9990234375 344 12.666015625 328 31.9990234375 c 0
 318.666992188 43.33203125 310.666992188 48.83203125 304 48.4990234375 c 0
 297.333007812 48.166015625 286.333007812 42.666015625 271 31.9990234375 c 0
 241.666992188 11.9990234375 203.166992188 3.666015625 155.5 6.9990234375 c 0
 107.833007812 10.33203125 72 23.9990234375 48 47.9990234375 c 0
 29.3330078125 66.666015625 17.666015625 85.8330078125 12.9990234375 105.5 c 0
 8.33203125 125.166992188 5.9990234375 164 5.9990234375 222 c 0
 5.9990234375 277.333007812 8.33203125 316.5 12.9990234375 339.5 c 0
 17.666015625 362.5 27.3330078125 383.333007812 42 402 c 0
 57.3330078125 420.666992188 72.3330078125 432.666992188 87 438 c 0
 101.666992188 443.333007812 128.666992188 446 168 446 c 2
 259 446 l 1
 259 564 l 1
 259 683 l 1
 192 683 l 2
 164 683 145.833007812 685 137.5 689 c 0
 129.166992188 693 125 702.333007812 125 717 c 0
258.998046875 245.998046875 m 2
 258.997070312 377.998046875 l 1
 186.997070312 377.998046875 l 2
 138.330078125 377.998046875 107.163085938 371.331054688 93.49609375 357.998046875 c 0
 79.8291015625 344.665039062 72.99609375 300.665039062 72.99609375 225.998046875 c 0
 72.99609375 151.331054688 79.8291015625 107.498046875 93.49609375 94.498046875 c 0
 107.163085938 81.498046875 131.330078125 74.998046875 165.997070312 74.998046875 c 0
 200.6640625 74.998046875 224.831054688 81.498046875 238.498046875 94.498046875 c 0
 252.165039062 107.498046875 258.998046875 157.998046875 258.998046875 245.998046875 c 2
493.997070312 353.998046875 m 0
 488.6640625 361.331054688 477.163085938 367.166015625 459.49609375 371.499023438 c 0
 441.829101562 375.83203125 422.662109375 377.999023438 401.995117188 377.999023438 c 2
 327.995117188 377.999023438 l 1
 327.995117188 244.999023438 l 2
 327.995117188 204.33203125 328.995117188 173.33203125 330.995117188 151.999023438 c 0
 332.995117188 130.666015625 338.328125 113.666015625 346.995117188 100.999023438 c 0
 355.662109375 88.33203125 366.829101562 80.83203125 380.49609375 78.4990234375 c 0
 394.163085938 76.166015625 413.99609375 75.666015625 439.99609375 76.9990234375 c 2
 503.99609375 82.9990234375 l 1
 509.99609375 205.999023438 l 2
 512.663085938 287.33203125 507.330078125 336.665039062 493.997070312 353.998046875 c 0
EndSplineSet
EndChar

StartChar: T
Encoding: 84 84 19
Width: 592
GlyphClass: 1
Flags: W
LayerCount: 2
Fore
SplineSet
52 711 m 0
 66.6669921875 725.666992188 80.498046875 735.6640625 93.498046875 740.997070312 c 0
 106.498046875 746.330078125 125.998046875 749.663085938 151.998046875 750.99609375 c 0
 177.998046875 752.329101562 226.498046875 752.99609375 297.498046875 752.99609375 c 0
 368.498046875 752.99609375 416.998046875 752.329101562 442.998046875 750.99609375 c 0
 468.998046875 749.663085938 488.498046875 746.330078125 501.498046875 740.997070312 c 0
 514.498046875 735.6640625 528.331054688 725.6640625 542.998046875 710.997070312 c 0
 563.665039062 690.330078125 575.83203125 665.497070312 579.499023438 636.497070312 c 0
 583.166015625 607.497070312 584.999023438 517.330078125 584.999023438 365.997070312 c 2
 584.999023438 308.997070312 l 2
 584.999023438 261.6640625 585.166015625 228.331054688 585.499023438 208.998046875 c 0
 585.83203125 189.665039062 584.165039062 165.498046875 580.498046875 136.498046875 c 0
 576.831054688 107.498046875 574.498046875 88.8310546875 573.498046875 80.498046875 c 0
 572.498046875 72.1650390625 566.331054688 60.998046875 554.998046875 46.998046875 c 0
 543.665039062 32.998046875 534.665039062 25.1650390625 527.998046875 23.498046875 c 0
 521.331054688 21.8310546875 506.498046875 18.8310546875 483.498046875 14.498046875 c 0
 460.498046875 10.1650390625 440.998046875 8.1650390625 424.998046875 8.498046875 c 0
 408.998046875 8.8310546875 382.331054688 8.998046875 344.998046875 8.998046875 c 2
 299.998046875 8.998046875 l 2
 228.665039062 8.998046875 179.83203125 9.8310546875 153.499023438 11.498046875 c 0
 127.166015625 13.1650390625 107.333007812 16.6650390625 94 21.998046875 c 0
 80.6669921875 27.3310546875 66.6669921875 36.998046875 52 50.998046875 c 0
 31.3330078125 71.6650390625 19.166015625 96.33203125 15.4990234375 124.999023438 c 0
 11.83203125 153.666015625 9.9990234375 239.333007812 9.9990234375 382 c 0
 9.9990234375 524.666992188 11.83203125 610 15.4990234375 638 c 0
 19.166015625 666 31.3330078125 690.333007812 52 711 c 0
497.998046875 661.997070312 m 0
 485.331054688 677.330078125 419.165039062 685.663085938 299.498046875 686.99609375 c 0
 179.831054688 688.329101562 112.6640625 681.329101562 97.9970703125 665.99609375 c 0
 88.6640625 656.663085938 81.9970703125 606.49609375 77.9970703125 515.49609375 c 0
 73.9970703125 424.49609375 74.330078125 333.829101562 78.9970703125 243.49609375 c 0
 83.6640625 153.163085938 90.9970703125 103.99609375 100.997070312 95.99609375 c 0
 116.330078125 82.6630859375 187.997070312 77.330078125 315.997070312 79.9970703125 c 2
 507.997070312 85.9970703125 l 1
 513.997070312 362.997070312 l 2
 516.6640625 546.997070312 511.331054688 646.6640625 497.998046875 661.997070312 c 0
EndSplineSet
EndChar

StartChar: U
Encoding: 85 85 20
Width: 594
GlyphClass: 1
Flags: W
LayerCount: 2
Fore
SplineSet
56.3251953125 711.264648438 m 0
 74.2880859375 729.756835938 92.119140625 741.379882812 109.818359375 746.134765625 c 0
 127.517578125 750.889648438 160.538085938 753.267578125 208.880859375 753.267578125 c 0
 257.223632812 753.267578125 290.376953125 750.889648438 308.340820312 746.134765625 c 0
 326.3046875 741.379882812 344.00390625 729.756835938 361.438476562 711.264648438 c 0
 379.9296875 693.301757812 391.685546875 675.470703125 396.705078125 657.771484375 c 0
 401.723632812 640.072265625 404.233398438 606.918945312 404.233398438 558.3125 c 0
 404.233398438 438.909179688 370.419921875 379.20703125 302.793945312 379.20703125 c 0
 288 379.20703125 277.565429688 384.490234375 271.489257812 395.057617188 c 0
 265.4140625 405.624023438 265.4140625 416.850585938 271.489257812 428.73828125 c 0
 277.565429688 440.625976562 288 448.68359375 302.793945312 452.91015625 c 0
 316.530273438 456.608398438 325.51171875 464.665039062 329.73828125 477.081054688 c 0
 333.96484375 489.497070312 336.078125 514.989257812 336.078125 553.557617188 c 0
 336.078125 578.91796875 334.096679688 602.296875 330.134765625 623.694335938 c 0
 326.172851562 645.091796875 321.549804688 658.696289062 316.265625 664.5078125 c 0
 302.529296875 678.244140625 266.734375 685.244140625 208.881835938 685.508789062 c 0
 151.029296875 685.7734375 115.499023438 678.7734375 102.291015625 664.508789062 c 0
 92.78125 655.52734375 86.1767578125 605.731445312 82.478515625 515.122070312 c 0
 78.7802734375 424.512695312 78.7802734375 334.036132812 82.478515625 243.69140625 c 0
 86.1767578125 153.346679688 92.78125 103.418945312 102.291015625 93.908203125 c 0
 115.499023438 80.7001953125 186.03125 74.095703125 313.887695312 74.095703125 c 0
 392.081054688 74.095703125 444.518554688 75.8125 471.19921875 79.2470703125 c 0
 497.879882812 82.681640625 513.069335938 89.41796875 516.767578125 99.4560546875 c 0
 520.994140625 111.607421875 529.315429688 119.6640625 541.731445312 123.625976562 c 0
 554.147460938 127.588867188 565.374023438 126.532226562 575.412109375 120.456054688 c 0
 585.450195312 114.380859375 590.469726562 105.267578125 590.469726562 93.1162109375 c 0
 590.469726562 69.869140625 582.1484375 52.169921875 565.505859375 40.0185546875 c 0
 548.864257812 27.8671875 520.598632812 19.2822265625 480.708984375 14.263671875 c 0
 440.819335938 9.244140625 382.306640625 6.734375 305.169921875 6.734375 c 0
 260.26171875 6.734375 227.241210938 6.8662109375 206.107421875 7.130859375 c 0
 184.973632812 7.3955078125 164.500976562 8.0556640625 144.688476562 9.1123046875 c 0
 124.875976562 10.1689453125 110.743164062 12.5458984375 102.290039062 16.244140625 c 0
 93.8369140625 19.9423828125 86.30859375 24.037109375 79.7041015625 28.5283203125 c 0
 73.099609375 33.01953125 65.306640625 39.755859375 56.3251953125 48.7373046875 c 0
 34.6630859375 68.8134765625 22.115234375 93.1162109375 18.681640625 121.646484375 c 0
 15.2470703125 150.176757812 13.5302734375 236.294921875 13.5302734375 380.000976562 c 0
 13.5302734375 523.70703125 15.2470703125 609.825195312 18.681640625 638.35546875 c 0
 22.115234375 666.885742188 34.6630859375 691.188476562 56.3251953125 711.264648438 c 0
EndSplineSet
EndChar

StartChar: W
Encoding: 87 87 21
Width: 576
GlyphClass: 1
Flags: W
LayerCount: 2
Fore
SplineSet
48 701 m 0
 61.3330078125 715.666992188 74.66796875 725.333007812 88.0009765625 730 c 0
 101.333984375 734.666992188 120.833984375 738 146.500976562 740 c 0
 172.16796875 742 219.834960938 743 289.501953125 743 c 0
 359.168945312 743 406.668945312 742 432.001953125 740 c 0
 457.334960938 738 476.66796875 734.666992188 490.000976562 730 c 0
 503.333984375 725.333007812 517.333984375 715.666015625 532.000976562 700.999023438 c 0
 549.333984375 683.666015625 560.333984375 665.999023438 565.000976562 647.999023438 c 0
 569.66796875 629.999023438 572.000976562 595.33203125 572.000976562 543.999023438 c 0
 572.000976562 493.33203125 570.000976562 459.83203125 566.000976562 443.499023438 c 0
 562.000976562 427.166015625 552.000976562 413.333007812 536.000976562 402 c 0
 512.000976562 384.666992188 492.66796875 376 478.000976562 376 c 0
 468.66796875 376 462.334960938 381.166992188 459.001953125 391.5 c 0
 455.668945312 401.833007812 456.168945312 413 460.501953125 425 c 0
 464.834960938 437 471.66796875 445 481.000976562 449 c 0
 497.000976562 454.333007812 505.66796875 486.5 507.000976562 545.5 c 0
 508.333984375 604.5 501.333984375 641.333007812 486.000976562 656 c 0
 472.66796875 669.333007812 407.16796875 676 289.500976562 676 c 0
 171.833984375 676 106.333984375 669.333007812 93.0009765625 656 c 0
 79.66796875 642.666992188 73.0009765625 548 73.0009765625 372 c 0
 73.0009765625 248.666992188 74.66796875 172.833984375 78.0009765625 144.500976562 c 0
 81.333984375 116.16796875 90.6669921875 97.66796875 106 89.0009765625 c 0
 118.666992188 81.0009765625 128 70.66796875 134 58.0009765625 c 0
 140 45.333984375 141.166992188 34.0009765625 137.5 24.0009765625 c 0
 133.833007812 14.0009765625 126 9.0009765625 114 9.0009765625 c 0
 106.666992188 9.0009765625 96.5 13.16796875 83.5 21.5009765625 c 0
 70.5 29.833984375 58.6669921875 39.6669921875 48 51 c 0
 27.3330078125 71 15.166015625 95 11.4990234375 123 c 0
 7.83203125 151 5.9990234375 235.333007812 5.9990234375 376 c 0
 5.9990234375 516.666992188 7.83203125 601 11.4990234375 629 c 0
 15.166015625 657 27.3330078125 681 48 701 c 0
EndSplineSet
EndChar

StartChar: X
Encoding: 88 88 22
Width: 596
GlyphClass: 1
Flags: W
LayerCount: 2
Fore
SplineSet
52 710 m 0
 65.3330078125 724.666992188 78.83203125 734.662109375 92.4990234375 739.995117188 c 0
 106.166015625 745.328125 125.999023438 748.661132812 151.999023438 749.994140625 c 0
 177.999023438 751.327148438 226.166015625 751.994140625 296.499023438 751.994140625 c 0
 366.83203125 751.994140625 414.999023438 751.327148438 440.999023438 749.994140625 c 0
 466.999023438 748.661132812 486.83203125 745.328125 500.499023438 739.995117188 c 0
 514.166015625 734.662109375 527.666015625 724.662109375 540.999023438 709.995117188 c 0
 552.999023438 698.662109375 563.166015625 686.495117188 571.499023438 673.495117188 c 0
 579.83203125 660.495117188 583.999023438 649.995117188 583.999023438 641.995117188 c 0
 583.999023438 629.995117188 578.999023438 622.162109375 568.999023438 618.495117188 c 0
 558.999023438 614.828125 547.499023438 615.995117188 534.499023438 621.995117188 c 0
 521.499023438 627.995117188 510.999023438 637.328125 502.999023438 649.995117188 c 0
 495.666015625 661.995117188 487.333007812 669.828125 478 673.495117188 c 0
 468.666992188 677.162109375 449.333984375 679.829101562 420.000976562 681.49609375 c 0
 390.66796875 683.163085938 348.000976562 683.330078125 292.000976562 681.997070312 c 2
 102.000976562 676.997070312 l 1
 97.0009765625 575.997070312 l 2
 93.66796875 514.6640625 100.500976562 472.331054688 117.500976562 448.998046875 c 0
 134.500976562 425.665039062 167.333984375 413.998046875 216.000976562 413.998046875 c 0
 242.66796875 413.998046875 260.000976562 411.998046875 268.000976562 407.998046875 c 0
 276.000976562 403.998046875 280.000976562 394.665039062 280.000976562 379.998046875 c 0
 280.000976562 366.665039062 275.66796875 357.83203125 267.000976562 353.499023438 c 0
 258.333984375 349.166015625 241.333984375 346.999023438 216.000976562 346.999023438 c 0
 163.333984375 346.999023438 129.500976562 337.33203125 114.500976562 317.999023438 c 0
 99.5009765625 298.666015625 93.66796875 257.333007812 97.0009765625 194 c 2
 102.000976562 85 l 1
 301.000976562 79 l 2
 384.333984375 77.6669921875 438.833984375 78.333984375 464.500976562 81.0009765625 c 0
 490.16796875 83.66796875 505.334960938 90.66796875 510.001953125 102.000976562 c 0
 514.668945312 113.333984375 523.001953125 121.000976562 535.001953125 125.000976562 c 0
 547.001953125 129.000976562 558.168945312 128.000976562 568.501953125 122.000976562 c 0
 578.834960938 116.000976562 584.001953125 107.000976562 584.001953125 95.0009765625 c 0
 584.001953125 71.66796875 575.668945312 54.0009765625 559.001953125 42.0009765625 c 0
 542.334960938 30.0009765625 514.001953125 21.333984375 474.001953125 16.0009765625 c 0
 434.001953125 10.66796875 376.001953125 8.0009765625 300.001953125 8.0009765625 c 0
 228.001953125 8.0009765625 178.834960938 8.833984375 152.501953125 10.5009765625 c 0
 126.168945312 12.16796875 106.168945312 15.66796875 92.501953125 21.0009765625 c 0
 78.8349609375 26.333984375 65.3349609375 36.0009765625 52.001953125 50.0009765625 c 0
 33.3349609375 67.333984375 21.66796875 85.1669921875 17.0009765625 103.5 c 0
 12.333984375 121.833007812 10.0009765625 155 10.0009765625 203 c 0
 10.0009765625 247 12.16796875 278.5 16.5009765625 297.5 c 0
 20.833984375 316.5 29.6669921875 333 43 347 c 2
 78 382 l 1
 43 426 l 2
 16.3330078125 459.333007812 4 508 6 572 c 0
 8 636 23.3330078125 682 52 710 c 0
EndSplineSet
EndChar

StartChar: Y
Encoding: 89 89 23
Width: 506
GlyphClass: 1
Flags: W
LayerCount: 2
Fore
SplineSet
41 735 m 0
 41 742.333007812 53.3330078125 744 78 740 c 0
 86.6669921875 738.666992188 93.833984375 735.333984375 99.5009765625 730.000976562 c 0
 105.16796875 724.66796875 112.000976562 710.334960938 120.000976562 687.001953125 c 0
 128.000976562 663.668945312 136.500976562 635.001953125 145.500976562 601.001953125 c 0
 154.500976562 567.001953125 167.66796875 514.334960938 185.000976562 443.001953125 c 0
 224.333984375 278.334960938 247.666992188 192.334960938 255 185.001953125 c 0
 258.333007812 181.001953125 262 184.334960938 266 195.001953125 c 0
 266.666992188 199.668945312 268.666992188 207.3359375 272 218.002929688 c 0
 284 263.3359375 307 358.8359375 341 504.502929688 c 0
 375 650.169921875 392 726.002929688 392 732.002929688 c 0
 392 734.669921875 396.333007812 737.169921875 405 739.502929688 c 0
 413.666992188 741.8359375 423.666992188 743.002929688 435 743.002929688 c 0
 463 743.002929688 474.666992188 736.3359375 470 723.002929688 c 0
 458.666992188 682.3359375 443.666992188 620.668945312 425 538.001953125 c 2
 387 375.001953125 l 1
 440 203.001953125 l 2
 474.666992188 89.6689453125 491.833984375 29.001953125 491.500976562 21.001953125 c 0
 491.16796875 13.001953125 480.66796875 9.001953125 460.000976562 9.001953125 c 0
 446.66796875 9.001953125 435.66796875 15.8349609375 427.000976562 29.501953125 c 0
 418.333984375 43.1689453125 408.666992188 68.6689453125 398 106.001953125 c 0
 377.333007812 170.001953125 364 206.001953125 358 214.001953125 c 0
 355.333007812 217.334960938 350.666015625 212.001953125 343.999023438 198.001953125 c 0
 335.33203125 179.334960938 325.999023438 152.66796875 315.999023438 118.000976562 c 0
 305.33203125 75.333984375 295.83203125 46.5009765625 287.499023438 31.5009765625 c 0
 279.166015625 16.5009765625 268.666015625 9.0009765625 255.999023438 9.0009765625 c 0
 244.666015625 9.0009765625 234.833007812 16.0009765625 226.5 30.0009765625 c 0
 218.166992188 44.0009765625 208.666992188 69.333984375 198 106.000976562 c 0
 179.333007812 169.333984375 167 206.000976562 161 216.000976562 c 0
 158.333007812 220.000976562 154 215.333984375 148 202.000976562 c 0
 138.666992188 184.66796875 128.333984375 158.66796875 117.000976562 124.000976562 c 0
 102.333984375 81.333984375 90.0009765625 52.5009765625 80.0009765625 37.5009765625 c 0
 70.0009765625 22.5009765625 57.0009765625 14.0009765625 41.0009765625 12.0009765625 c 0
 28.333984375 9.333984375 19.6669921875 9.5009765625 15 12.5009765625 c 0
 10.3330078125 15.5009765625 9 21.0009765625 11 29.0009765625 c 0
 15.6669921875 41.0009765625 37 102.66796875 75 214.000976562 c 2
 128 377.000976562 l 1
 84 551.000976562 l 2
 55.3330078125 670.333984375 41 731.666992188 41 735 c 0
EndSplineSet
EndChar

StartChar: a
Encoding: 97 97 24
Width: 581
GlyphClass: 1
Flags: W
LayerCount: 2
Fore
SplineSet
52.212890625 403.973632812 m 0
 52.212890625 452.580078125 52.34375 492.735351562 52.607421875 524.435546875 c 0
 52.8720703125 556.135742188 53.2685546875 584.9296875 53.796875 610.818359375 c 0
 54.3251953125 636.706054688 55.25 656.650390625 56.5712890625 670.651367188 c 0
 57.892578125 684.65234375 59.4775390625 696.407226562 61.326171875 705.916992188 c 0
 63.1748046875 715.427734375 65.2880859375 721.767578125 67.666015625 724.9375 c 0
 70.0439453125 728.107421875 73.08203125 729.692382812 76.7802734375 729.692382812 c 0
 82.0634765625 729.692382812 86.2900390625 725.862304688 89.4599609375 718.201171875 c 0
 92.6298828125 710.540039062 95.271484375 694.293945312 97.384765625 669.461914062 c 0
 99.498046875 644.630859375 101.083007812 612.40234375 102.139648438 572.77734375 c 0
 103.196289062 533.15234375 104.252929688 478.206054688 105.309570312 407.9375 c 0
 106.366210938 330.80078125 107.422851562 273.080078125 108.48046875 234.776367188 c 0
 109.537109375 196.471679688 111.385742188 163.979492188 114.02734375 137.298828125 c 0
 116.668945312 110.618164062 119.70703125 93.3154296875 123.141601562 85.390625 c 0
 126.576171875 77.4658203125 131.462890625 71.1259765625 137.802734375 66.37109375 c 0
 157.350585938 54.2197265625 176.370117188 54.2197265625 194.861328125 66.37109375 c 0
 201.729492188 70.59765625 207.012695312 76.8056640625 210.7109375 84.994140625 c 0
 214.409179688 93.18359375 217.579101562 110.750976562 220.220703125 137.6953125 c 0
 222.862304688 164.640625 224.7109375 197.000976562 225.767578125 234.77734375 c 0
 226.825195312 272.552734375 228.146484375 330.2734375 229.731445312 407.938476562 c 0
 230.259765625 478.20703125 231.052734375 533.153320312 232.109375 572.778320312 c 0
 233.166015625 612.403320312 234.750976562 644.631835938 236.864257812 669.462890625 c 0
 238.977539062 694.294921875 241.619140625 710.541015625 244.7890625 718.202148438 c 0
 247.958984375 725.86328125 252.185546875 729.693359375 257.46875 729.693359375 c 0
 268.036132812 729.693359375 274.772460938 714.767578125 277.677734375 684.916992188 c 0
 280.583007812 655.06640625 282.036132812 587.8359375 282.036132812 483.225585938 c 0
 282.036132812 346.38671875 284.677734375 270.834960938 289.961914062 256.5703125 c 0
 294.188476562 248.1171875 302.11328125 247.325195312 313.736328125 254.193359375 c 0
 349.663085938 273.213867188 387.571289062 272.817382812 427.459960938 253.004882812 c 0
 467.349609375 233.192382812 492.841796875 202.416992188 503.936523438 160.677734375 c 0
 506.049804688 148.526367188 511.46484375 133.6015625 520.182617188 115.90234375 c 0
 528.900390625 98.203125 538.014648438 83.013671875 547.525390625 70.3330078125 c 0
 573.942382812 31.7646484375 580.282226562 13.0087890625 566.544921875 14.0654296875 c 0
 558.091796875 15.1220703125 544.883789062 23.5751953125 526.919921875 39.42578125 c 0
 507.899414062 54.7470703125 494.823242188 62.275390625 487.69140625 62.0107421875 c 0
 480.55859375 61.74609375 467.217773438 54.2177734375 447.669921875 39.4248046875 c 0
 400.120117188 1.384765625 351.249023438 -0.2001953125 301.057617188 34.669921875 c 0
 284.150390625 46.8212890625 271.999023438 52.7646484375 264.602539062 52.5 c 0
 257.206054688 52.2353515625 246.639648438 45.4990234375 232.90234375 32.291015625 c 0
 211.768554688 14.328125 186.14453125 8.251953125 156.030273438 14.0634765625 c 0
 124.330078125 22.517578125 99.7626953125 26.8759765625 82.3271484375 27.1396484375 c 0
 64.892578125 27.404296875 47.193359375 23.837890625 29.23046875 16.44140625 c 0
 13.908203125 9.5732421875 5.9833984375 7.1953125 5.455078125 9.30859375 c 0
 4.9267578125 11.421875 11.2666015625 21.98828125 24.474609375 41.0087890625 c 0
 36.6259765625 57.916015625 44.287109375 87.7666015625 47.45703125 130.561523438 c 0
 50.6279296875 173.356445312 52.212890625 264.494140625 52.212890625 403.973632812 c 0
443.706054688 168.603515625 m 0
 426.799804688 199.774414062 404.21484375 216.549804688 375.94921875 218.927734375 c 0
 347.682617188 221.305664062 324.0390625 209.022460938 305.018554688 182.078125 c 0
 292.8671875 162.529296875 286.791992188 148.396484375 286.791992188 139.678710938 c 0
 286.791992188 130.9609375 292.8671875 117.091796875 305.018554688 98.0712890625 c 0
 321.397460938 72.7109375 342.663085938 59.37109375 368.815429688 58.05078125 c 0
 394.967773438 56.7294921875 418.346679688 67.9560546875 438.951171875 91.73046875 c 0
 452.688476562 107.581054688 459.953125 119.46875 460.745117188 127.393554688 c 0
 461.537109375 135.318359375 455.857421875 149.0546875 443.706054688 168.603515625 c 0
EndSplineSet
EndChar

StartChar: b
Encoding: 98 98 25
Width: 400
GlyphClass: 1
Flags: W
LayerCount: 2
Fore
SplineSet
129 724 m 0
 153 736 172.666992188 741.998046875 188 741.998046875 c 0
 202.666992188 742.665039062 209 738.33203125 207 728.999023438 c 0
 203.666992188 715.666015625 189.666992188 702.666015625 165 689.999023438 c 0
 133.666992188 675.33203125 115.833984375 652.165039062 111.500976562 620.498046875 c 0
 107.16796875 588.831054688 116.500976562 553.331054688 139.500976562 513.998046875 c 0
 162.500976562 474.665039062 196.000976562 438.665039062 240.000976562 405.998046875 c 0
 294.66796875 364.665039062 331.16796875 325.83203125 349.500976562 289.499023438 c 0
 367.833984375 253.166015625 374.000976562 208.333007812 368.000976562 155 c 0
 359.333984375 101.666992188 361.666992188 67 375 51 c 0
 388.333007812 35 391.166015625 23.6669921875 383.499023438 17 c 0
 375.83203125 10.3330078125 363.999023438 13.666015625 347.999023438 26.9990234375 c 0
 338.666015625 35.666015625 329.166015625 39.9990234375 319.499023438 39.9990234375 c 0
 309.83203125 39.9990234375 296.665039062 36.33203125 279.998046875 28.9990234375 c 0
 225.331054688 4.9990234375 170.998046875 4.9990234375 116.998046875 28.9990234375 c 0
 100.331054688 36.33203125 87.3310546875 39.9990234375 77.998046875 39.9990234375 c 0
 68.6650390625 39.9990234375 58.6650390625 35.666015625 47.998046875 26.9990234375 c 0
 30.6650390625 12.33203125 18.83203125 8.9990234375 12.4990234375 16.9990234375 c 0
 6.166015625 24.9990234375 10.9990234375 37.33203125 26.9990234375 53.9990234375 c 0
 37.666015625 63.33203125 43.4990234375 74.1650390625 44.4990234375 86.498046875 c 0
 45.4990234375 98.8310546875 42.33203125 117.331054688 34.9990234375 141.998046875 c 0
 24.33203125 183.331054688 23.6650390625 220.1640625 32.998046875 252.497070312 c 0
 42.3310546875 284.830078125 64.3310546875 320.330078125 98.998046875 358.997070312 c 2
 157.998046875 422.997070312 l 1
 115.998046875 459.997070312 l 2
 104.665039062 470.6640625 93.998046875 484.331054688 83.998046875 500.998046875 c 0
 73.998046875 517.665039062 67.6650390625 532.33203125 64.998046875 544.999023438 c 0
 57.6650390625 577.666015625 60.83203125 612.833007812 74.4990234375 650.5 c 0
 88.166015625 688.166992188 106.333007812 712.666992188 129 724 c 0
274 315.998046875 m 0
 258.666992188 332.665039062 243.833984375 346.999023438 229.500976562 358.999023438 c 0
 215.16796875 370.999023438 204.66796875 376.999023438 198.000976562 376.999023438 c 0
 177.333984375 376.999023438 151.500976562 355.33203125 120.500976562 311.999023438 c 0
 89.5009765625 268.666015625 74.0009765625 232.666015625 74.0009765625 203.999023438 c 0
 74.0009765625 163.999023438 86.0009765625 129.999023438 110.000976562 101.999023438 c 0
 134.000976562 73.9990234375 163.000976562 59.9990234375 197.000976562 59.9990234375 c 0
 266.333984375 59.9990234375 306.666992188 103.33203125 318 189.999023438 c 0
 322 217.999023438 321.333007812 239.666015625 316 254.999023438 c 0
 310.666992188 270.33203125 296.666992188 290.665039062 274 315.998046875 c 0
EndSplineSet
EndChar

StartChar: c
Encoding: 99 99 26
Width: 392
GlyphClass: 1
Flags: W
LayerCount: 2
Fore
SplineSet
54 416 m 0
 54 556.666992188 55.33203125 646.833007812 57.9990234375 686.5 c 0
 60.666015625 726.166992188 67.666015625 746 78.9990234375 746 c 0
 88.33203125 746 94.6650390625 735.666992188 97.998046875 715 c 0
 101.331054688 694.333007812 102.998046875 652 102.998046875 588 c 2
 102.998046875 429 l 1
 203.998046875 429 l 1
 303.998046875 429 l 1
 303.998046875 588 l 2
 303.998046875 652.666992188 305.665039062 695.166992188 308.998046875 715.5 c 0
 312.331054688 735.833007812 319.331054688 746 329.998046875 746 c 0
 336.665039062 746 341.33203125 742.166992188 343.999023438 734.5 c 0
 346.666015625 726.833007812 348.999023438 711.5 350.999023438 688.5 c 0
 352.999023438 665.5 353.83203125 632.166992188 353.499023438 588.5 c 0
 353.166015625 544.833007812 352.666015625 486.666015625 351.999023438 413.999023438 c 0
 350.666015625 193.33203125 356.999023438 70.33203125 370.999023438 44.9990234375 c 0
 381.666015625 24.9990234375 385.333007812 14.666015625 382 13.9990234375 c 0
 379.333007812 13.33203125 372 15.33203125 360 19.9990234375 c 0
 336.666992188 28.666015625 316.666992188 32.3330078125 300 31 c 0
 279.333007812 28.3330078125 247.5 27 204.5 27 c 0
 161.5 27 127 28.3330078125 101 31 c 0
 75.6669921875 32.3330078125 52 28.666015625 30 19.9990234375 c 0
 14 13.33203125 6 11.33203125 6 13.9990234375 c 0
 6 16.666015625 12.3330078125 26.9990234375 25 44.9990234375 c 0
 37.6669921875 62.33203125 45.6669921875 92.83203125 49 136.499023438 c 0
 52.3330078125 180.166015625 54 273.333007812 54 416 c 0
303.999023438 250.999023438 m 2
 304.000976562 378.999023438 l 1
 204.000976562 378.999023438 l 1
 103.000976562 378.999023438 l 1
 103.000976562 246.999023438 l 2
 103.000976562 173.666015625 109.66796875 124.499023438 123.000976562 99.4990234375 c 0
 136.333984375 74.4990234375 162.666992188 61.9990234375 202 61.9990234375 c 0
 241.333007812 61.9990234375 268.166015625 75.4990234375 282.499023438 102.499023438 c 0
 296.83203125 129.499023438 303.999023438 178.999023438 303.999023438 250.999023438 c 2
EndSplineSet
EndChar

StartChar: d
Encoding: 100 100 27
Width: 553
GlyphClass: 1
Flags: W
LayerCount: 2
Fore
SplineSet
51 420 m 0
 51 572.666992188 52.33203125 664.999023438 54.9990234375 696.999023438 c 0
 57.666015625 728.999023438 66.3330078125 744.999023438 81 744.999023438 c 0
 101.666992188 744.999023438 140 700.33203125 196 610.999023438 c 2
 280 475.999023438 l 1
 365 610.999023438 l 2
 415.666992188 690.999023438 448.333984375 733.999023438 463.000976562 739.999023438 c 0
 475.000976562 746.666015625 483.66796875 738.333007812 489.000976562 715 c 0
 497.000976562 683 501.000976562 582.333007812 501.000976562 413 c 0
 501.000976562 277.666992188 502.66796875 187.333984375 506.000976562 142.000976562 c 0
 509.333984375 96.66796875 516.000976562 69.66796875 526.000976562 61.0009765625 c 0
 542.000976562 46.333984375 550.000976562 34.6669921875 550.000976562 26 c 0
 550.000976562 8.6669921875 539.66796875 6 519.000976562 18 c 0
 507.66796875 24.6669921875 496.000976562 34.6669921875 484.000976562 48 c 0
 468.000976562 64.6669921875 458.500976562 89.5 455.500976562 122.5 c 0
 452.500976562 155.5 451.000976562 240.333007812 451.000976562 377 c 2
 451.000976562 670 l 1
 392.000976562 578 l 2
 353.333984375 516.666992188 331.666992188 473.166992188 327 447.5 c 0
 322.333007812 421.833007812 329.666015625 387.333007812 348.999023438 344 c 0
 369.666015625 299.333007812 380.333007812 251.166015625 381 199.499023438 c 0
 381.666992188 147.83203125 373 104.83203125 355 70.4990234375 c 0
 337 36.166015625 313.333007812 18.9990234375 284 18.9990234375 c 0
 261.333007812 18.9990234375 241.833007812 31.4990234375 225.5 56.4990234375 c 0
 209.166992188 81.4990234375 198.166992188 111.499023438 192.5 146.499023438 c 0
 186.833007812 181.499023438 186.666015625 220.166015625 191.999023438 262.499023438 c 0
 197.33203125 304.83203125 208.665039062 342.999023438 225.998046875 376.999023438 c 0
 230.665039062 388.33203125 234.33203125 396.165039062 236.999023438 400.498046875 c 0
 239.666015625 404.831054688 241.166015625 411.331054688 241.499023438 419.998046875 c 0
 241.83203125 428.665039062 241.499023438 434.83203125 240.499023438 438.499023438 c 0
 239.499023438 442.166015625 235.83203125 450.833007812 229.499023438 464.5 c 0
 223.166015625 478.166992188 216.999023438 489.833984375 210.999023438 499.500976562 c 0
 204.999023438 509.16796875 194.999023438 526.000976562 180.999023438 550.000976562 c 2
 108.999023438 670.000976562 l 1
 99.9990234375 365.000976562 l 2
 95.9990234375 225.000976562 91.9990234375 137.500976562 87.9990234375 102.500976562 c 0
 83.9990234375 67.5009765625 74.9990234375 45.0009765625 60.9990234375 35.0009765625 c 0
 25.666015625 9.66796875 8.3330078125 4.3349609375 9 19.001953125 c 0
 9 26.3349609375 13.6669921875 37.66796875 23 53.0009765625 c 0
 34.3330078125 69.66796875 41.8330078125 101.16796875 45.5 147.500976562 c 0
 49.1669921875 193.833984375 51 284.666992188 51 420 c 0
326.999023438 249.999023438 m 0
 318.999023438 298.666015625 307.666015625 333 292.999023438 353 c 0
 283.666015625 366.333007812 276.666015625 370 271.999023438 364 c 0
 268.666015625 359.333007812 262.666015625 342.666015625 253.999023438 313.999023438 c 0
 229.33203125 233.999023438 227.999023438 163.666015625 249.999023438 102.999023438 c 0
 264.666015625 65.666015625 280.666015625 55.666015625 297.999023438 72.9990234375 c 0
 318.666015625 93.666015625 329.999023438 132.999023438 331.999023438 190.999023438 c 0
 331.999023438 210.999023438 330.33203125 230.666015625 326.999023438 249.999023438 c 0
EndSplineSet
EndChar

StartChar: e
Encoding: 101 101 28
Width: 370
GlyphClass: 1
Flags: W
LayerCount: 2
Fore
SplineSet
123.170898438 687.236328125 m 0
 144.83203125 709.954101562 170.0546875 722.109375 198.848632812 723.694335938 c 0
 227.642578125 725.279296875 255.248046875 716.693359375 281.665039062 697.9375 c 0
 308.08203125 679.181640625 328.158203125 653.161132812 341.89453125 619.876953125 c 0
 370.424804688 549.608398438 352.990234375 486.208007812 289.590820312 429.67578125 c 0
 256.833984375 400.6171875 243.889648438 382.389648438 250.7578125 374.993164062 c 0
 251.814453125 372.879882812 254.456054688 371.294921875 258.68359375 370.23828125 c 0
 265.0234375 367.596679688 271.627929688 362.313476562 278.49609375 354.388671875 c 0
 285.364257812 346.463867188 290.119140625 338.274414062 292.760742188 329.8203125 c 0
 295.930664062 320.838867188 301.874023438 313.442382812 310.591796875 307.630859375 c 0
 319.309570312 301.819335938 328.423828125 298.913085938 337.934570312 298.913085938 c 0
 354.3125 297.856445312 363.030273438 296.139648438 364.086914062 293.76171875 c 0
 365.143554688 291.383789062 359.33203125 285.17578125 346.651367188 275.137695312 c 0
 336.084960938 266.68359375 328.556640625 254.267578125 324.065429688 237.889648438 c 0
 319.57421875 221.51171875 317.329101562 197.47265625 317.329101562 165.772460938 c 0
 317.329101562 113.99609375 309.404296875 73.974609375 293.5546875 45.7080078125 c 0
 277.704101562 17.4423828125 255.513671875 3.3095703125 226.983398438 3.3095703125 c 0
 203.736328125 3.3095703125 182.8671875 15.197265625 164.375976562 38.97265625 c 0
 145.884765625 62.7470703125 136.638671875 89.9560546875 136.638671875 120.599609375 c 0
 136.638671875 145.431640625 147.205078125 172.640625 168.337890625 202.227539062 c 0
 189.471679688 231.814453125 211.92578125 250.041992188 235.701171875 256.91015625 c 0
 249.4375 261.13671875 258.418945312 266.81640625 262.645507812 273.948242188 c 0
 266.872070312 281.081054688 266.080078125 289.930664062 260.268554688 300.497070312 c 0
 254.45703125 311.064453125 243.362304688 324.537109375 226.984375 340.915039062 c 0
 212.190429688 355.708007812 202.15234375 366.40625 196.869140625 373.010742188 c 0
 191.5859375 379.615234375 189.47265625 386.483398438 190.529296875 393.616210938 c 0
 191.5859375 400.748046875 195.284179688 406.69140625 201.624023438 411.446289062 c 0
 207.963867188 416.201171875 219.323242188 423.333984375 235.702148438 432.84375 c 0
 267.40234375 450.807617188 289.063476562 474.978515625 300.686523438 505.357421875 c 0
 312.310546875 535.736328125 312.575195312 568.361328125 301.48046875 603.231445312 c 0
 296.197265625 618.024414062 289.329101562 631.62890625 280.875 644.044921875 c 0
 272.421875 656.4609375 265.025390625 663.725585938 258.685546875 665.838867188 c 0
 216.418945312 682.216796875 183.001953125 677.59375 158.434570312 651.969726562 c 0
 133.8671875 626.345703125 117.356445312 579.192382812 108.90234375 510.508789062 c 0
 103.619140625 465.600585938 93.712890625 429.938476562 79.18359375 403.521484375 c 0
 64.6552734375 377.104492188 47.3525390625 363.896484375 27.275390625 363.896484375 c 0
 21.9921875 363.896484375 18.2939453125 364.29296875 16.1806640625 365.084960938 c 0
 14.06640625 365.876953125 13.1416015625 367.858398438 13.40625 371.028320312 c 0
 13.6708984375 374.19921875 14.9921875 377.897460938 17.3701171875 382.124023438 c 0
 19.748046875 386.350585938 23.314453125 392.162109375 28.0693359375 399.55859375 c 0
 35.466796875 409.596679688 41.806640625 423.201171875 47.08984375 440.372070312 c 0
 52.373046875 457.54296875 55.0146484375 473.260742188 55.0146484375 487.525390625 c 0
 55.0146484375 525.037109375 61.3544921875 562.15234375 74.0341796875 598.87109375 c 0
 86.71484375 635.590820312 103.09375 665.045898438 123.170898438 687.236328125 c 0
265.0234375 139.623046875 m 0
 267.665039062 181.361328125 265.0234375 205.533203125 257.098632812 212.137695312 c 0
 249.173828125 218.7421875 234.379882812 209.892578125 212.717773438 185.588867188 c 0
 200.038085938 171.8515625 192.11328125 154.944335938 188.943359375 134.8671875 c 0
 185.7734375 114.791015625 187.88671875 97.48828125 195.283203125 82.958984375 c 0
 202.6796875 68.4296875 213.24609375 61.1650390625 226.983398438 61.1650390625 c 0
 240.719726562 61.1650390625 249.833007812 66.0517578125 254.32421875 75.826171875 c 0
 258.815429688 85.6005859375 262.381835938 106.866210938 265.0234375 139.623046875 c 0
EndSplineSet
EndChar

StartChar: f
Encoding: 102 102 29
Width: 434
GlyphClass: 1
Flags: W
LayerCount: 2
Fore
SplineSet
168 588 m 0
 180 649.333007812 189.999023438 690.000976562 197.999023438 710.000976562 c 0
 205.999023438 730.000976562 216.33203125 740.000976562 228.999023438 740.000976562 c 0
 248.999023438 740.000976562 258.999023438 739.000976562 258.999023438 737.000976562 c 0
 258.999023438 733.66796875 245.999023438 680.66796875 219.999023438 578.000976562 c 2
 178.999023438 423.000976562 l 1
 219.999023438 423.000976562 l 2
 246.666015625 423.000976562 259.833007812 414.66796875 259.5 398.000976562 c 0
 259.166992188 381.333984375 242.333984375 373.000976562 209.000976562 373.000976562 c 0
 190.333984375 373.000976562 177.500976562 370.66796875 170.500976562 366.000976562 c 0
 163.500976562 361.333984375 160.000976562 353.333984375 160.000976562 342.000976562 c 0
 160.000976562 322.66796875 156.333984375 303.000976562 149.000976562 283.000976562 c 0
 145.000976562 271.66796875 145.500976562 265.000976562 150.500976562 263.000976562 c 0
 155.500976562 261.000976562 169.000976562 262.000976562 191.000976562 266.000976562 c 0
 224.333984375 272.66796875 254.666992188 267.16796875 282 249.500976562 c 0
 309.333007812 231.833984375 327 206.333984375 335 173.000976562 c 0
 338.333007812 158.333984375 345 141.166992188 355 121.5 c 0
 365 101.833007812 376 85.3330078125 388 72 c 0
 399.333007812 58.6669921875 408.333007812 46.1669921875 415 34.5 c 0
 421.666992188 22.8330078125 423.666992188 15.666015625 421 12.9990234375 c 0
 413.666992188 6.33203125 398.666992188 9.6650390625 376 22.998046875 c 0
 353.333007812 36.3310546875 342 47.998046875 342 57.998046875 c 0
 342 67.998046875 329.666992188 63.6650390625 305 44.998046875 c 1
 299 41.998046875 l 1
 273.666992188 21.998046875 245.5 10.8310546875 214.5 8.498046875 c 0
 183.5 6.1650390625 156.666992188 13.33203125 134 29.9990234375 c 0
 120.666992188 39.33203125 109.833984375 43.9990234375 101.500976562 43.9990234375 c 0
 93.16796875 43.9990234375 81.0009765625 38.33203125 65.0009765625 26.9990234375 c 0
 35.66796875 7.666015625 18.3349609375 4.3330078125 13.001953125 17 c 0
 9.6689453125 24.3330078125 15.001953125 35.666015625 29.001953125 50.9990234375 c 0
 37.001953125 59.666015625 46.8349609375 81.3330078125 58.501953125 116 c 0
 70.1689453125 150.666992188 80.001953125 188 88.001953125 228 c 0
 95.3349609375 258.666992188 100.66796875 282.833984375 104.000976562 300.500976562 c 0
 107.333984375 318.16796875 109.500976562 332.66796875 110.500976562 344.000976562 c 0
 111.500976562 355.333984375 111.16796875 363.000976562 109.500976562 367.000976562 c 0
 107.833984375 371.000976562 104.666992188 373.000976562 100 373.000976562 c 0
 84 373.000976562 76 379.66796875 76 393.000976562 c 0
 76.6669921875 408.333984375 85.333984375 419.000976562 102.000976562 425.000976562 c 0
 103.333984375 425.66796875 104.666992188 426.000976562 106 426.000976562 c 0
 118.666992188 430.000976562 129.166992188 443.16796875 137.5 465.500976562 c 0
 145.833007812 487.833984375 156 528.666992188 168 588 c 0
265.999023438 197.000976562 m 0
 258.666015625 204.333984375 249.5 210.501953125 238.5 215.501953125 c 0
 227.5 220.501953125 217.833007812 223.001953125 209.5 223.001953125 c 0
 201.166992188 223.001953125 191.166992188 220.334960938 179.5 215.001953125 c 0
 167.833007812 209.668945312 158.666015625 203.668945312 151.999023438 197.001953125 c 0
 144.666015625 190.334960938 138.499023438 181.16796875 133.499023438 169.500976562 c 0
 128.499023438 157.833984375 125.999023438 148.000976562 125.999023438 140.000976562 c 0
 125.999023438 121.333984375 134.666015625 102.666992188 151.999023438 84 c 0
 169.33203125 65.3330078125 186.33203125 56 202.999023438 56 c 0
 222.33203125 56 239.33203125 60.8330078125 253.999023438 70.5 c 0
 268.666015625 80.1669921875 278.999023438 91.833984375 284.999023438 105.500976562 c 0
 290.999023438 119.16796875 292.499023438 134.500976562 289.499023438 151.500976562 c 0
 286.499023438 168.500976562 278.666015625 183.66796875 265.999023438 197.000976562 c 0
EndSplineSet
EndChar

StartChar: g
Encoding: 103 103 30
Width: 334
GlyphClass: 1
Flags: W
LayerCount: 2
Fore
SplineSet
80 695 m 0
 90.6669921875 706.333007812 103.998046875 716.165039062 119.998046875 724.498046875 c 0
 135.998046875 732.831054688 149.998046875 736.998046875 161.998046875 736.998046875 c 0
 173.998046875 736.998046875 188.331054688 732.831054688 204.998046875 724.498046875 c 0
 221.665039062 716.165039062 234.998046875 706.33203125 244.998046875 694.999023438 c 0
 262.331054688 678.33203125 273.6640625 660.999023438 278.997070312 642.999023438 c 0
 284.330078125 624.999023438 286.997070312 593.999023438 286.997070312 549.999023438 c 0
 286.997070312 478.666015625 295.997070312 430.999023438 313.997070312 406.999023438 c 0
 332.6640625 381.666015625 334.997070312 369.666015625 320.997070312 370.999023438 c 0
 312.330078125 371.666015625 296.663085938 379.999023438 273.99609375 395.999023438 c 0
 257.99609375 407.33203125 247.99609375 420.83203125 243.99609375 436.499023438 c 0
 239.99609375 452.166015625 237.99609375 482.666015625 237.99609375 527.999023438 c 0
 237.99609375 574.666015625 232.329101562 612.166015625 220.99609375 640.499023438 c 0
 209.663085938 668.83203125 194.830078125 684.665039062 176.497070312 687.998046875 c 0
 158.1640625 691.331054688 137.331054688 681.998046875 113.998046875 659.998046875 c 0
 102.665039062 648.665039062 95.498046875 623.33203125 92.498046875 583.999023438 c 0
 89.498046875 544.666015625 87.998046875 465.666015625 87.998046875 346.999023438 c 0
 87.998046875 271.666015625 87.8310546875 217.999023438 87.498046875 185.999023438 c 0
 87.1650390625 153.999023438 85.498046875 125.33203125 82.498046875 99.9990234375 c 0
 79.498046875 74.666015625 76.3310546875 58.3330078125 72.998046875 51 c 0
 69.6650390625 43.6669921875 63.33203125 36 53.9990234375 28 c 0
 33.9990234375 10.6669921875 18.666015625 5 7.9990234375 11 c 0
 -0.0009765625 15 2.9990234375 24.6669921875 16.9990234375 40 c 0
 30.33203125 53.3330078125 37.33203125 159 37.9990234375 357 c 0
 37.9990234375 505 39.83203125 593.333007812 43.4990234375 622 c 0
 47.166015625 650.666992188 59.3330078125 675 80 695 c 0
EndSplineSet
EndChar

StartChar: h
Encoding: 104 104 31
Width: 518
GlyphClass: 1
Flags: W
LayerCount: 2
Fore
SplineSet
38 586 m 0
 40.6669921875 645.333007812 44.0009765625 685.6640625 48.0009765625 706.997070312 c 0
 52.0009765625 728.330078125 58.66796875 738.997070312 68.0009765625 738.997070312 c 0
 77.333984375 738.997070312 83.6669921875 729.497070312 87 710.497070312 c 0
 90.3330078125 691.497070312 92 654.6640625 92 599.997070312 c 0
 92 528.6640625 96.5 481.1640625 105.5 457.497070312 c 0
 114.5 433.830078125 133 421.997070312 161 421.997070312 c 0
 183.666992188 421.997070312 200 436.6640625 210 465.997070312 c 0
 220 495.330078125 225 543.997070312 225 611.997070312 c 0
 225 662.6640625 226.5 696.497070312 229.5 713.497070312 c 0
 232.5 730.497070312 239 738.997070312 249 738.997070312 c 0
 258.333007812 738.997070312 265 728.497070312 269 707.497070312 c 0
 273 686.497070312 276 645.997070312 278 585.997070312 c 0
 280.666992188 512.6640625 283.833984375 468.331054688 287.500976562 452.998046875 c 0
 291.16796875 437.665039062 302.334960938 428.33203125 321.001953125 424.999023438 c 0
 356.334960938 420.33203125 379.501953125 429.165039062 390.501953125 451.498046875 c 0
 401.501953125 473.831054688 407.001953125 522.998046875 407.001953125 598.998046875 c 0
 407.001953125 654.998046875 408.834960938 692.331054688 412.501953125 710.998046875 c 0
 416.168945312 729.665039062 422.668945312 738.998046875 432.001953125 738.998046875 c 0
 443.334960938 738.998046875 450.501953125 725.831054688 453.501953125 699.498046875 c 0
 456.501953125 673.165039062 458.001953125 613.998046875 458.001953125 521.998046875 c 0
 458.001953125 429.998046875 459.501953125 370.831054688 462.501953125 344.498046875 c 0
 465.501953125 318.165039062 472.334960938 304.998046875 483.001953125 304.998046875 c 0
 489.668945312 304.998046875 495.501953125 303.498046875 500.501953125 300.498046875 c 0
 505.501953125 297.498046875 508.001953125 293.998046875 508.001953125 289.998046875 c 0
 508.001953125 281.998046875 499.668945312 273.665039062 483.001953125 264.998046875 c 0
 466.334960938 259.665039062 458.001953125 225.33203125 458.001953125 161.999023438 c 0
 458.001953125 57.33203125 426.668945312 4.9990234375 364.001953125 4.9990234375 c 0
 340.668945312 4.9990234375 319.8359375 17.166015625 301.502929688 41.4990234375 c 0
 283.169921875 65.83203125 274.002929688 93.33203125 274.002929688 123.999023438 c 0
 274.002929688 149.33203125 284.8359375 176.999023438 306.502929688 206.999023438 c 0
 328.169921875 236.999023438 351.002929688 255.999023438 375.002929688 263.999023438 c 0
 387.669921875 267.999023438 396.169921875 275.166015625 400.502929688 285.499023438 c 0
 404.8359375 295.83203125 407.002929688 314.33203125 407.002929688 340.999023438 c 0
 407.002929688 371.666015625 405.502929688 389.166015625 402.502929688 393.499023438 c 0
 399.502929688 397.83203125 390.3359375 394.999023438 375.002929688 384.999023438 c 0
 362.3359375 376.999023438 350.168945312 372.999023438 338.501953125 372.999023438 c 0
 326.834960938 372.999023438 309.66796875 376.999023438 287.000976562 384.999023438 c 0
 251.66796875 398.33203125 228.66796875 399.665039062 218.000976562 388.998046875 c 0
 207.333984375 377.665039062 187.166992188 372.165039062 157.5 372.498046875 c 0
 127.833007812 372.831054688 107.333007812 378.6640625 96 389.997070312 c 0
 83.3330078125 402.6640625 65 402.331054688 41 388.998046875 c 0
 20.3330078125 377.665039062 10 374.33203125 10 378.999023438 c 0
 10 381.666015625 12.3330078125 387.999023438 17 397.999023438 c 0
 27 424.666015625 34 487.333007812 38 586 c 0
405.000976562 143.998046875 m 0
 407.66796875 186.665039062 404.833007812 211.331054688 396.5 217.998046875 c 0
 388.166992188 224.665039062 373 215.665039062 351 190.998046875 c 0
 338.333007812 176.331054688 330.333007812 158.831054688 327 138.498046875 c 0
 323.666992188 118.165039062 325.833984375 100.665039062 333.500976562 85.998046875 c 0
 341.16796875 71.3310546875 352.000976562 63.998046875 366.000976562 63.998046875 c 0
 379.333984375 63.998046875 388.333984375 68.6650390625 393.000976562 77.998046875 c 0
 397.66796875 87.3310546875 401.66796875 109.331054688 405.000976562 143.998046875 c 0
EndSplineSet
EndChar

StartChar: i
Encoding: 105 105 32
Width: 198
GlyphClass: 1
Flags: W
LayerCount: 2
Fore
SplineSet
40.8359375 698.048828125 m 0
 73.064453125 732.918945312 111.8984375 733.978515625 157.334960938 701.221679688 c 0
 180.58203125 685.37109375 192.205078125 665.426757812 192.205078125 641.387695312 c 0
 192.205078125 617.348632812 181.110351562 592.913085938 158.919921875 568.08203125 c 0
 147.295898438 556.458007812 140.03125 548.004882812 137.125976562 542.721679688 c 0
 134.220703125 537.438476562 133.692382812 533.34375 135.541015625 530.4375 c 0
 137.389648438 527.532226562 142.8046875 524.23046875 151.786132812 520.532226562 c 0
 170.27734375 513.6640625 178.73046875 506.002929688 177.145507812 497.548828125 c 0
 176.088867188 488.0390625 163.9375 485.397460938 140.690429688 489.624023438 c 0
 139.633789062 490.15234375 138.048828125 490.680664062 135.935546875 491.208984375 c 2
 95.517578125 501.51171875 l 1
 95.517578125 289.122070312 l 2
 95.517578125 206.173828125 97.234375 147.924804688 100.668945312 114.375 c 0
 104.103515625 80.826171875 111.103515625 56.6552734375 121.669921875 41.861328125 c 0
 136.991210938 19.671875 141.217773438 8.3125 134.349609375 7.7841796875 c 0
 129.065429688 6.7275390625 115.329101562 12.0107421875 93.1396484375 23.6337890625 c 0
 80.98828125 29.974609375 70.685546875 32.880859375 62.2314453125 32.3525390625 c 0
 53.7783203125 31.82421875 45.060546875 27.861328125 36.0791015625 20.4638671875 c 0
 19.701171875 7.255859375 8.6064453125 4.3505859375 2.794921875 11.748046875 c 0
 -3.544921875 20.7294921875 1.73828125 33.4091796875 18.6455078125 49.7880859375 c 0
 28.68359375 61.939453125 37.0048828125 108.564453125 43.609375 189.663085938 c 0
 50.2138671875 270.76171875 52.5908203125 351.33203125 50.7412109375 431.374023438 c 0
 48.892578125 511.416992188 42.94921875 556.721679688 32.9111328125 567.288085938 c 0
 19.1748046875 580.49609375 12.966796875 600.96875 14.287109375 628.706054688 c 0
 15.6083984375 656.443359375 24.4580078125 679.557617188 40.8359375 698.048828125 c 0
138.314453125 655.256835938 m 0
 132.502929688 670.049804688 120.880859375 677.447265625 103.4453125 677.447265625 c 0
 86.0107421875 677.447265625 74.3876953125 670.05078125 68.576171875 655.2578125 c 0
 62.2353515625 638.350585938 61.4423828125 620.38671875 66.197265625 601.366210938 c 0
 70.9521484375 582.346679688 79.1416015625 571.251953125 90.7646484375 568.08203125 c 0
 102.916015625 564.383789062 115.33203125 574.025390625 128.012695312 597.0078125 c 0
 140.692382812 619.990234375 144.125976562 639.40625 138.314453125 655.256835938 c 0
EndSplineSet
EndChar

StartChar: j
Encoding: 106 106 33
Width: 362
GlyphClass: 1
Flags: W
LayerCount: 2
Fore
SplineSet
73 709 m 0
 112.333007812 748.333007812 152.333007812 749.66796875 193 713.000976562 c 0
 210.333007812 697.000976562 219.833007812 670.66796875 221.5 634.000976562 c 0
 223.166992188 597.333984375 215.666992188 572.333984375 199 559.000976562 c 0
 188.333007812 550.333984375 183.5 541.666992188 184.5 533 c 0
 185.5 524.333007812 193.333007812 509 208 487 c 0
 232.666992188 445.666992188 242 412.5 236 387.5 c 0
 230 362.5 205 332.333007812 161 297 c 0
 108.333007812 255.666992188 78 229 70 217 c 0
 58 201.666992188 53.6669921875 184.833984375 57 166.500976562 c 0
 60.3330078125 148.16796875 67.8330078125 131.000976562 79.5 115.000976562 c 0
 91.1669921875 99.0009765625 107.5 85.5009765625 128.5 74.5009765625 c 0
 149.5 63.5009765625 171 58.0009765625 193 58.0009765625 c 0
 213.666992188 58.0009765625 226.5 59.833984375 231.5 63.5009765625 c 0
 236.5 67.16796875 236.666992188 75.0009765625 232 87.0009765625 c 0
 199.333007812 160.333984375 201.666015625 214.666992188 238.999023438 250 c 0
 252.33203125 262 263.665039062 269.166992188 272.998046875 271.5 c 0
 282.331054688 273.833007812 291.998046875 271.666015625 301.998046875 264.999023438 c 0
 319.331054688 254.33203125 330.331054688 227.999023438 334.998046875 185.999023438 c 0
 339.665039062 143.999023438 334.665039062 114.666015625 319.998046875 97.9990234375 c 0
 312.665039062 89.33203125 309.83203125 80.6650390625 311.499023438 71.998046875 c 0
 313.166015625 63.3310546875 319.999023438 51.998046875 331.999023438 37.998046875 c 0
 349.33203125 18.6650390625 356.999023438 8.6650390625 354.999023438 7.998046875 c 0
 353.666015625 7.998046875 345.666015625 10.3310546875 330.999023438 14.998046875 c 0
 310.999023438 23.6650390625 291.33203125 26.998046875 271.999023438 24.998046875 c 0
 210.666015625 16.998046875 164.833007812 16.1650390625 134.5 22.498046875 c 0
 104.166992188 28.8310546875 77.333984375 44.998046875 54.0009765625 70.998046875 c 0
 41.333984375 86.3310546875 30.1669921875 102.998046875 20.5 120.998046875 c 0
 10.8330078125 138.998046875 6 153.665039062 6 164.998046875 c 0
 6 188.331054688 18.8330078125 216.331054688 44.5 248.998046875 c 0
 70.1669921875 281.665039062 98.6669921875 306.33203125 130 322.999023438 c 0
 184.666992188 352.33203125 198.666992188 397.999023438 172 459.999023438 c 0
 158.666992188 494.666015625 140 510.333007812 116 507 c 0
 80.6669921875 504.333007812 62.6669921875 506 62 512 c 0
 61.3330078125 515.333007812 67 521.333007812 79 530 c 0
 92.3330078125 540.666992188 98.8330078125 548.5 98.5 553.5 c 0
 98.1669921875 558.5 90 567.666992188 74 581 c 0
 29.3330078125 623 29 665.666992188 73 709 c 0
181 674.001953125 m 0
 173.666992188 686.001953125 162.5 691.500976562 147.5 690.500976562 c 0
 132.5 689.500976562 119.166992188 682.000976562 107.5 668.000976562 c 0
 95.8330078125 654.000976562 95.8330078125 635.000976562 107.5 611.000976562 c 0
 119.166992188 587.000976562 133.666992188 575.000976562 151 575.000976562 c 0
 163 575.000976562 173 588.333984375 181 615.000976562 c 0
 189 641.66796875 189 661.334960938 181 674.001953125 c 0
284 147.000976562 m 0
 290.666992188 165.66796875 290.666992188 185.000976562 284 205.000976562 c 0
 280.666992188 218.333984375 278.333984375 225.000976562 277.000976562 225.000976562 c 0
 275.66796875 225.000976562 271.334960938 218.333984375 264.001953125 205.000976562 c 0
 256.001953125 185.000976562 256.001953125 165.66796875 264.001953125 147.000976562 c 0
 271.334960938 132.333984375 275.66796875 125.000976562 277.000976562 125.000976562 c 0
 278.333984375 125.000976562 280.666992188 132.333984375 284 147.000976562 c 0
EndSplineSet
EndChar

StartChar: k
Encoding: 107 107 34
Width: 382
GlyphClass: 1
Flags: W
LayerCount: 2
Fore
SplineSet
48 611 m 0
 48 661.666992188 49.83203125 695.666992188 53.4990234375 713 c 0
 57.166015625 730.333007812 63.666015625 739 72.9990234375 739 c 0
 82.33203125 739 89.1650390625 728.5 93.498046875 707.5 c 0
 97.8310546875 686.5 100.6640625 646 101.997070312 586 c 2
 106.997070312 431 l 1
 155.997070312 425 l 2
 191.997070312 421 216.330078125 431.5 228.997070312 456.5 c 0
 241.6640625 481.5 247.997070312 532 247.997070312 608 c 0
 247.997070312 660.666992188 249.6640625 695.666992188 252.997070312 713 c 0
 256.330078125 730.333007812 263.330078125 739 273.997070312 739 c 0
 284.6640625 739 291.497070312 725.833007812 294.497070312 699.5 c 0
 297.497070312 673.166992188 298.997070312 614 298.997070312 522 c 0
 298.997070312 414.666992188 300.497070312 351.666992188 303.497070312 333 c 0
 306.497070312 314.333007812 317.330078125 304.666015625 335.997070312 303.999023438 c 2
 372.997070312 303.999023438 l 1
 335.997070312 276.999023438 l 2
 320.6640625 265.666015625 310.6640625 252.499023438 305.997070312 237.499023438 c 0
 301.330078125 222.499023438 298.997070312 194.999023438 298.997070312 154.999023438 c 0
 298.997070312 99.666015625 289.997070312 59.8330078125 271.997070312 35.5 c 0
 253.997070312 11.1669921875 227.6640625 3.333984375 192.997070312 12.0009765625 c 0
 168.997070312 17.333984375 150.830078125 29.833984375 138.497070312 49.5009765625 c 0
 126.1640625 69.16796875 120.331054688 90.8349609375 120.998046875 114.501953125 c 0
 121.665039062 138.168945312 128.83203125 162.168945312 142.499023438 186.501953125 c 0
 156.166015625 210.834960938 174.666015625 230.334960938 197.999023438 245.001953125 c 0
 219.33203125 257.668945312 232.999023438 269.8359375 238.999023438 281.502929688 c 0
 244.999023438 293.169921875 247.999023438 313.669921875 247.999023438 343.002929688 c 0
 247.999023438 379.669921875 244.999023438 398.002929688 238.999023438 398.002929688 c 0
 235.666015625 398.002929688 231.999023438 396.002929688 227.999023438 392.002929688 c 0
 213.33203125 377.3359375 191.33203125 370.668945312 161.999023438 372.001953125 c 0
 132.666015625 373.334960938 111.333007812 381.66796875 98 397.000976562 c 0
 87.3330078125 408.333984375 79.3330078125 414.000976562 74 414.000976562 c 0
 68.6669921875 414.000976562 59.6669921875 407.66796875 47 395.000976562 c 0
 18.3330078125 370.333984375 4.666015625 367.333984375 5.9990234375 386.000976562 c 0
 6.666015625 395.333984375 12.3330078125 410.666992188 23 432 c 0
 39.6669921875 467.333007812 48 527 48 611 c 0
247.999023438 137 m 0
 247.999023438 161 247.33203125 179.16796875 245.999023438 191.500976562 c 0
 244.666015625 203.833984375 241.666015625 212.166992188 236.999023438 216.5 c 0
 232.33203125 220.833007812 226.499023438 220.833007812 219.499023438 216.5 c 0
 212.499023438 212.166992188 203.33203125 203.666992188 191.999023438 191 c 0
 178.666015625 175.666992188 170.499023438 158 167.499023438 138 c 0
 164.499023438 118 166.999023438 100.333007812 174.999023438 85 c 0
 182.999023438 69.6669921875 194.999023438 61 210.999023438 59 c 0
 227.666015625 56.3330078125 237.999023438 59 241.999023438 67 c 0
 245.999023438 75 247.999023438 98.3330078125 247.999023438 137 c 0
EndSplineSet
EndChar

StartChar: l
Encoding: 108 108 35
Width: 448
GlyphClass: 1
Flags: W
LayerCount: 2
Fore
SplineSet
138 509 m 2
 138 606.333007812 139.331054688 669 141.998046875 697 c 0
 144.665039062 725 151.665039062 739 162.998046875 739 c 0
 172.331054688 739 178.831054688 730.166992188 182.498046875 712.5 c 0
 186.165039062 694.833007812 187.998046875 659.666015625 187.998046875 606.999023438 c 0
 187.998046875 534.999023438 194.165039062 486.166015625 206.498046875 460.499023438 c 0
 218.831054688 434.83203125 242.6640625 421.999023438 277.997070312 421.999023438 c 0
 309.330078125 421.999023438 329.997070312 433.33203125 339.997070312 455.999023438 c 0
 349.997070312 478.666015625 354.997070312 526.666015625 354.997070312 599.999023438 c 0
 354.997070312 654.666015625 356.497070312 691.499023438 359.497070312 710.499023438 c 0
 362.497070312 729.499023438 368.497070312 738.999023438 377.497070312 738.999023438 c 0
 386.497070312 738.999023438 393.1640625 728.166015625 397.497070312 706.499023438 c 0
 401.830078125 684.83203125 405.330078125 644.665039062 407.997070312 585.998046875 c 0
 411.997070312 487.331054688 418.6640625 424.6640625 427.997070312 397.997070312 c 0
 434.6640625 384.6640625 436.997070312 377.331054688 434.997070312 375.998046875 c 0
 432.997070312 374.665039062 423.997070312 377.998046875 407.997070312 385.998046875 c 0
 381.330078125 399.331054688 358.330078125 400.331054688 338.997070312 388.998046875 c 0
 317.6640625 376.998046875 293.497070312 371.331054688 266.497070312 371.998046875 c 0
 239.497070312 372.665039062 219.6640625 379.33203125 206.997070312 391.999023438 c 0
 196.330078125 402.666015625 189.997070312 399.999023438 187.997070312 383.999023438 c 2
 187.997070312 358.999023438 l 2
 187.997070312 322.999023438 195.997070312 304.999023438 211.997070312 304.999023438 c 0
 219.330078125 304.999023438 225.330078125 303.499023438 229.997070312 300.499023438 c 0
 234.6640625 297.499023438 236.997070312 293.999023438 236.997070312 289.999023438 c 0
 236.997070312 281.999023438 228.6640625 273.666015625 211.997070312 264.999023438 c 0
 195.997070312 259.666015625 187.997070312 225.333007812 187.997070312 162 c 0
 187.997070312 57.3330078125 157.330078125 5 95.9970703125 5 c 0
 72.6640625 5 54.3310546875 12.5 40.998046875 27.5 c 0
 27.6650390625 42.5 17.33203125 67 9.9990234375 101 c 0
 -1.333984375 163.666992188 24.3330078125 213.666992188 87 251 c 2
 138 278 l 1
 138 509 l 2
133.998046875 144 m 0
 136.665039062 186.666992188 134.166015625 211.333007812 126.499023438 218 c 0
 118.83203125 224.666992188 103.665039062 215.666992188 80.998046875 191 c 0
 68.3310546875 176.333007812 60.3310546875 158.833007812 56.998046875 138.5 c 0
 53.6650390625 118.166992188 55.6650390625 100.666992188 62.998046875 86 c 0
 70.3310546875 71.3330078125 81.3310546875 64 95.998046875 64 c 0
 110.665039062 64 119.998046875 68.6669921875 123.998046875 78 c 0
 127.998046875 87.3330078125 131.331054688 109.333007812 133.998046875 144 c 0
EndSplineSet
EndChar

StartChar: m
Encoding: 109 109 36
Width: 618
GlyphClass: 1
Flags: W
LayerCount: 2
Fore
SplineSet
57 418 m 0
 57 557.333007812 58.501953125 646.337890625 61.501953125 685.004882812 c 0
 64.501953125 723.671875 71.3349609375 743.004882812 82.001953125 743.004882812 c 0
 92.6689453125 743.004882812 99.6689453125 724.171875 103.001953125 686.504882812 c 0
 106.334960938 648.837890625 108.001953125 562.670898438 108.001953125 428.00390625 c 0
 108.001953125 335.336914062 108.501953125 267.836914062 109.501953125 225.50390625 c 0
 110.501953125 183.170898438 114.501953125 147.50390625 121.501953125 118.50390625 c 0
 128.501953125 89.50390625 137.001953125 72.3369140625 147.001953125 67.00390625 c 0
 157.001953125 61.6708984375 172.668945312 59.00390625 194.001953125 59.00390625 c 0
 233.334960938 59.00390625 259.16796875 73.6708984375 271.500976562 103.00390625 c 0
 283.833984375 132.336914062 290.000976562 191.00390625 290.000976562 279.00390625 c 0
 290.000976562 345.670898438 291.833984375 389.670898438 295.500976562 411.00390625 c 0
 299.16796875 432.336914062 306.000976562 443.00390625 316.000976562 443.00390625 c 0
 326.000976562 443.00390625 332.500976562 432.50390625 335.500976562 411.50390625 c 0
 338.500976562 390.50390625 340.000976562 347.00390625 340.000976562 281.00390625 c 0
 340.000976562 190.336914062 346.66796875 130.669921875 360.000976562 102.002929688 c 0
 373.333984375 73.3359375 400.666992188 59.0029296875 442 59.0029296875 c 0
 456.666992188 59.0029296875 468.666992188 61.169921875 478 65.5029296875 c 0
 487.333007812 69.8359375 495.166015625 77.0029296875 501.499023438 87.0029296875 c 0
 507.83203125 97.0029296875 512.499023438 112.8359375 515.499023438 134.502929688 c 0
 518.499023438 156.169921875 520.666015625 181.169921875 521.999023438 209.502929688 c 0
 523.33203125 237.8359375 523.999023438 276.002929688 523.999023438 324.002929688 c 2
 523.999023438 430.502929688 l 2
 523.999023438 452.8359375 521.33203125 475.668945312 515.999023438 499.001953125 c 0
 510.666015625 522.334960938 505.666015625 537.501953125 500.999023438 544.501953125 c 0
 496.33203125 551.501953125 485.665039062 558.334960938 468.998046875 565.001953125 c 0
 452.331054688 571.668945312 436.331054688 575.168945312 420.998046875 575.501953125 c 0
 405.665039062 575.834960938 380.33203125 576.001953125 344.999023438 576.001953125 c 0
 283.666015625 576.001953125 246.833007812 573.834960938 234.5 569.501953125 c 0
 222.166992188 565.168945312 211.333984375 550.668945312 202.000976562 526.001953125 c 0
 197.333984375 512.668945312 191.000976562 501.001953125 183.000976562 491.001953125 c 0
 175.000976562 481.001953125 168.000976562 476.001953125 162.000976562 476.001953125 c 0
 143.333984375 476.001953125 136.333984375 488.668945312 141.000976562 514.001953125 c 0
 145.66796875 539.334960938 159.334960938 563.001953125 182.001953125 585.001953125 c 0
 199.334960938 603.668945312 217.501953125 615.168945312 236.501953125 619.501953125 c 0
 255.501953125 623.834960938 292.668945312 626.001953125 348.001953125 626.001953125 c 0
 428.668945312 626.001953125 479.001953125 622.668945312 499.001953125 616.001953125 c 0
 528.334960938 604.001953125 548.16796875 575.168945312 558.500976562 529.501953125 c 0
 568.833984375 483.834960938 574.000976562 402.66796875 574.000976562 286.000976562 c 0
 574.000976562 136.66796875 579.333984375 58.3349609375 590.000976562 51.001953125 c 0
 601.333984375 44.3349609375 607.500976562 37.8349609375 608.500976562 31.501953125 c 0
 609.500976562 25.1689453125 606.66796875 21.3359375 600.000976562 20.0029296875 c 0
 593.333984375 18.669921875 584.666992188 20.669921875 574 26.0029296875 c 0
 550 38.0029296875 528 38.0029296875 508 26.0029296875 c 0
 483.333007812 14.0029296875 457 9.169921875 429 11.5029296875 c 0
 401 13.8359375 376.666992188 23.6689453125 356 41.001953125 c 0
 336.666992188 56.3349609375 323.166992188 63.8349609375 315.5 63.501953125 c 0
 307.833007812 63.1689453125 293.333007812 55.001953125 272 39.001953125 c 0
 253.333007812 25.6689453125 237 17.501953125 223 14.501953125 c 0
 209 11.501953125 188.666992188 13.3349609375 162 20.001953125 c 0
 126 27.3349609375 101 30.66796875 87 30.0009765625 c 0
 73 29.333984375 54.6669921875 24.6669921875 32 16 c 0
 16 9.3330078125 8 7.666015625 8 10.9990234375 c 0
 8 14.33203125 14.6669921875 26.33203125 28 46.9990234375 c 0
 40.6669921875 66.33203125 48.6669921875 97.33203125 52 139.999023438 c 0
 55.3330078125 182.666015625 57 275.333007812 57 418 c 0
EndSplineSet
EndChar

StartChar: n
Encoding: 110 110 37
Width: 390
GlyphClass: 1
Flags: W
LayerCount: 2
Fore
SplineSet
108 700 m 0
 135.333007812 723.333007812 164.501953125 736.169921875 195.501953125 738.502929688 c 0
 226.501953125 740.8359375 254.501953125 732.502929688 279.501953125 713.502929688 c 0
 304.501953125 694.502929688 321.334960938 667.3359375 330.001953125 632.002929688 c 0
 345.334960938 575.3359375 328.001953125 518.002929688 278.001953125 460.002929688 c 2
 238.001953125 412.002929688 l 1
 280.001953125 373.002929688 l 2
 316.001953125 339.669921875 340.334960938 306.169921875 353.001953125 272.502929688 c 0
 365.668945312 238.8359375 369.3359375 198.668945312 364.002929688 152.001953125 c 0
 355.3359375 98.6689453125 357.668945312 64.001953125 371.001953125 48.001953125 c 0
 384.334960938 32.001953125 387.16796875 20.6689453125 379.500976562 14.001953125 c 0
 371.833984375 7.3349609375 360.000976562 10.66796875 344.000976562 24.0009765625 c 0
 334.66796875 32.66796875 325.16796875 37.0009765625 315.500976562 37.0009765625 c 0
 305.833984375 37.0009765625 292.666992188 33.333984375 276 26.0009765625 c 0
 221.333007812 2.0009765625 167 2.0009765625 113 26.0009765625 c 0
 96.3330078125 33.333984375 83.3330078125 37.0009765625 74 37.0009765625 c 0
 64.6669921875 37.0009765625 54.6669921875 32.66796875 44 24.0009765625 c 0
 26.6669921875 9.333984375 14.833984375 6.0009765625 8.5009765625 14.0009765625 c 0
 2.16796875 22.0009765625 7.0009765625 34.333984375 23.0009765625 51.0009765625 c 0
 33.66796875 60.333984375 39.5009765625 71.1669921875 40.5009765625 83.5 c 0
 41.5009765625 95.8330078125 38.333984375 114.333007812 31.0009765625 139 c 0
 20.333984375 180.333007812 19.6669921875 217 29 249 c 0
 38.3330078125 281 60.3330078125 316 95 354 c 2
 151 417 l 1
 107 463 l 2
 89.6669921875 481.666992188 77.6669921875 499.166992188 71 515.5 c 0
 64.3330078125 531.833007812 61 554.666015625 61 583.999023438 c 0
 61 615.33203125 64 638.33203125 70 652.999023438 c 0
 76 667.666015625 88.6669921875 683.333007812 108 700 c 0
270.001953125 660.00390625 m 0
 256.668945312 684.00390625 233.669921875 694.666992188 201.002929688 692 c 0
 168.3359375 689.333007812 143.3359375 675 126.002929688 649 c 0
 114.669921875 630.333007812 108.502929688 614.666015625 107.502929688 601.999023438 c 0
 106.502929688 589.33203125 110.002929688 569.33203125 118.002929688 541.999023438 c 0
 123.3359375 524.666015625 130.3359375 507.333007812 139.002929688 490 c 0
 147.669921875 472.666992188 155.669921875 461.333984375 163.002929688 456.000976562 c 0
 174.3359375 446.66796875 184.668945312 443.834960938 194.001953125 447.501953125 c 0
 203.334960938 451.168945312 218.001953125 464.3359375 238.001953125 487.002929688 c 0
 290.001953125 543.669921875 300.668945312 601.336914062 270.001953125 660.00390625 c 0
268.002929688 315 m 0
 254.669921875 331 240.670898438 344.83203125 226.00390625 356.499023438 c 0
 211.336914062 368.166015625 200.669921875 373.999023438 194.002929688 373.999023438 c 0
 173.3359375 373.999023438 147.502929688 352.33203125 116.502929688 308.999023438 c 0
 85.5029296875 265.666015625 70.0029296875 229.666015625 70.0029296875 200.999023438 c 0
 70.0029296875 168.999023438 77.669921875 140.999023438 93.0029296875 116.999023438 c 0
 108.3359375 92.9990234375 127.002929688 75.83203125 149.002929688 65.4990234375 c 0
 171.002929688 55.166015625 194.669921875 52.8330078125 220.002929688 58.5 c 0
 245.3359375 64.1669921875 266.668945312 78 284.001953125 100 c 0
 309.334960938 132.666992188 320.834960938 167.666992188 318.501953125 205 c 0
 316.168945312 242.333007812 299.3359375 279 268.002929688 315 c 0
EndSplineSet
EndChar

StartChar: o
Encoding: 111 111 38
Width: 414
GlyphClass: 1
Flags: W
LayerCount: 2
Fore
SplineSet
115.721679688 399.973632812 m 0
 131.571289062 472.883789062 144.251953125 529.154296875 153.762695312 568.779296875 c 0
 163.272460938 608.404296875 171.857421875 640.764648438 179.518554688 665.860351562 c 0
 187.1796875 690.956054688 193.51953125 707.202148438 198.538085938 714.599609375 c 0
 203.557617188 721.99609375 209.237304688 725.694335938 215.577148438 725.694335938 c 0
 226.143554688 725.694335938 233.276367188 723.44921875 236.974609375 718.958007812 c 0
 240.672851562 714.466796875 240.9375 707.202148438 237.767578125 697.1640625 c 0
 228.256835938 662.822265625 195.236328125 528.889648438 138.705078125 295.366210938 c 0
 134.477539062 273.705078125 134.081054688 261.421875 137.515625 258.516601562 c 0
 140.950195312 255.610351562 154.5546875 256.006835938 178.330078125 259.705078125 c 0
 210.030273438 266.573242188 239.352539062 261.158203125 266.296875 243.458984375 c 0
 293.2421875 225.759765625 310.413085938 200.795898438 317.809570312 168.567382812 c 0
 321.5078125 153.774414062 328.375976562 136.735351562 338.4140625 117.451171875 c 0
 348.452148438 98.1669921875 359.283203125 81.392578125 370.90625 67.1279296875 c 0
 381.47265625 54.447265625 390.057617188 42.427734375 396.662109375 31.0693359375 c 0
 403.266601562 19.7099609375 405.51171875 12.708984375 403.3984375 10.0673828125 c 0
 397.05859375 3.7275390625 382.529296875 7.162109375 359.811523438 20.3701171875 c 0
 337.092773438 33.578125 325.733398438 45.201171875 325.733398438 55.2392578125 c 0
 325.733398438 64.220703125 314.638671875 60.7861328125 292.44921875 44.935546875 c 0
 289.278320312 42.822265625 286.108398438 40.4443359375 282.938476562 37.802734375 c 0
 257.578125 18.2548828125 229.708984375 7.423828125 199.330078125 5.310546875 c 0
 168.951171875 3.197265625 142.666992188 10.330078125 120.4765625 26.7080078125 c 0
 107.795898438 36.74609375 97.361328125 41.6328125 89.1728515625 41.3681640625 c 0
 80.9833984375 41.1044921875 68.69921875 35.953125 52.3212890625 25.9150390625 c 0
 24.84765625 7.951171875 7.94140625 3.4599609375 1.6015625 12.44140625 c 0
 -2.625 19.3095703125 2.9228515625 31.197265625 18.244140625 48.103515625 c 0
 25.1123046875 56.5576171875 38.1884765625 95.1259765625 57.47265625 163.80859375 c 0
 76.7568359375 232.4921875 96.1728515625 311.213867188 115.721679688 399.973632812 c 0
251.239257812 190.756835938 m 0
 244.899414062 197.625 235.91796875 203.702148438 224.294921875 208.985351562 c 0
 212.670898438 214.268554688 202.764648438 216.91015625 194.576171875 216.91015625 c 0
 186.38671875 216.91015625 176.744140625 214.400390625 165.649414062 209.381835938 c 0
 154.5546875 204.362304688 145.573242188 198.154296875 138.705078125 190.7578125 c 0
 131.836914062 184.41796875 125.892578125 175.568359375 120.873046875 164.208984375 c 0
 115.854492188 152.849609375 113.344726562 143.20703125 113.344726562 135.282226562 c 0
 113.344726562 117.319335938 121.666015625 99.091796875 138.30859375 80.6005859375 c 0
 154.951171875 62.1083984375 171.461914062 52.8623046875 187.83984375 52.8623046875 c 0
 206.860351562 52.8623046875 223.766601562 57.4853515625 238.559570312 66.7314453125 c 0
 253.353515625 75.9775390625 263.65625 87.46875 269.467773438 101.205078125 c 0
 275.279296875 114.942382812 276.864257812 130 274.22265625 146.377929688 c 0
 271.581054688 162.755859375 263.919921875 177.548828125 251.239257812 190.756835938 c 0
EndSplineSet
EndChar

StartChar: q
Encoding: 113 113 39
Width: 423
GlyphClass: 1
Flags: W
LayerCount: 2
Fore
SplineSet
105 715 m 0
 105 721.666992188 107.668945312 727.334960938 113.001953125 732.001953125 c 0
 118.334960938 736.668945312 124.001953125 739.001953125 130.001953125 739.001953125 c 0
 140.668945312 739.001953125 147.668945312 730.168945312 151.001953125 712.501953125 c 0
 154.334960938 694.834960938 156.001953125 659.66796875 156.001953125 607.000976562 c 0
 156.001953125 535.000976562 162.168945312 486.16796875 174.501953125 460.500976562 c 0
 186.834960938 434.833984375 210.66796875 422.000976562 246.000976562 422.000976562 c 0
 278.000976562 422.000976562 298.66796875 433.333984375 308.000976562 456.000976562 c 0
 317.333984375 478.66796875 322.000976562 526.66796875 322.000976562 600.000976562 c 0
 322.000976562 656.000976562 323.66796875 693.16796875 327.000976562 711.500976562 c 0
 330.333984375 729.833984375 337.000976562 739.000976562 347.000976562 739.000976562 c 0
 357.000976562 739.000976562 363.833984375 730.000976562 367.500976562 712.000976562 c 0
 371.16796875 694.000976562 373.000976562 658.333984375 373.000976562 605.000976562 c 0
 373.000976562 514.333984375 381.333984375 453.333984375 398.000976562 422.000976562 c 0
 412.66796875 393.333984375 415.334960938 376.666992188 406.001953125 372 c 0
 399.334960938 368.666992188 388.66796875 376.333984375 374.000976562 395.000976562 c 0
 366.000976562 405.66796875 357.833984375 410.66796875 349.500976562 410.000976562 c 0
 341.16796875 409.333984375 326.66796875 403.333984375 306.000976562 392.000976562 c 0
 286.000976562 380.000976562 269.66796875 373.500976562 257.000976562 372.500976562 c 0
 244.333984375 371.500976562 227.666992188 375.333984375 207 384.000976562 c 2
 156 402.000976562 l 1
 156 204.000976562 l 2
 156 161.333984375 155.5 127.666992188 154.5 103 c 0
 153.5 78.3330078125 152 58.3330078125 150 43 c 0
 148 27.6669921875 145.666992188 17.5 143 12.5 c 0
 140.333007812 7.5 136 5 130 5 c 0
 119.333007812 5 112.5 23.3330078125 109.5 60 c 0
 106.5 96.6669921875 105 181 105 313 c 0
 105 518.333007812 103 621.333007812 99 622 c 0
 91.6669921875 622 75 616.333007812 49 605 c 0
 9 589.666992188 -2 592.666992188 16 614 c 0
 24 622.666992188 37.3330078125 634.666992188 56 650 c 0
 69.3330078125 660.666992188 80.8330078125 672.5 90.5 685.5 c 0
 100.166992188 698.5 105 708.333007812 105 715 c 0
EndSplineSet
EndChar

StartChar: r
Encoding: 114 114 40
Width: 408
GlyphClass: 1
Flags: W
LayerCount: 2
Fore
SplineSet
113 409 m 0
 154.333007812 628.333007812 182.333984375 738 197.000976562 738 c 0
 206.333984375 738 213.333984375 734 218.000976562 726 c 0
 225.333984375 710.666992188 249.333984375 601 290.000976562 397 c 0
 291.333984375 388.333007812 292.666992188 380 294 372 c 0
 332.666992188 177.333007812 361.666992188 70.3330078125 381 51 c 0
 401 29.6669921875 405.666992188 16.333984375 395 11.0009765625 c 0
 385.666992188 6.333984375 369.666992188 11.0009765625 347 25.0009765625 c 0
 331 36.333984375 318.833007812 42.0009765625 310.5 42.0009765625 c 0
 302.166992188 42.0009765625 291.333984375 37.333984375 278.000976562 28.0009765625 c 0
 258.000976562 12.66796875 233.333984375 5.16796875 204.000976562 5.5009765625 c 0
 174.66796875 5.833984375 149.66796875 13.6669921875 129.000976562 29 c 0
 116.333984375 39.6669921875 106.166992188 45 98.5 45 c 0
 90.8330078125 45 79 39.6669921875 63 29 c 0
 27 2.3330078125 9.3330078125 -3 10 13 c 0
 10.6669921875 19.6669921875 15 29.333984375 23 42.0009765625 c 0
 38.3330078125 65.333984375 68.3330078125 187.666992188 113 409 c 0
236.000976562 430 m 0
 217.333984375 530 205.3359375 585.998046875 200.002929688 597.998046875 c 0
 198.669921875 598.665039062 192.502929688 573.33203125 181.502929688 521.999023438 c 0
 170.502929688 470.666015625 160.002929688 417.833007812 150.002929688 363.5 c 0
 140.002929688 309.166992188 135.3359375 278.333984375 136.002929688 271.000976562 c 0
 136.002929688 267.66796875 147.669921875 265.16796875 171.002929688 263.500976562 c 0
 194.3359375 261.833984375 215.668945312 261.000976562 235.001953125 261.000976562 c 0
 254.334960938 261.000976562 265.66796875 262.000976562 269.000976562 264.000976562 c 0
 269.66796875 267.333984375 258.66796875 322.666992188 236.000976562 430 c 0
260.002929688 194.998046875 m 0
 253.3359375 202.331054688 244.168945312 208.497070312 232.501953125 213.497070312 c 0
 220.834960938 218.497070312 211.001953125 220.997070312 203.001953125 220.997070312 c 0
 181.668945312 220.997070312 162.3359375 211.6640625 145.002929688 192.997070312 c 0
 127.669921875 174.330078125 119.002929688 153.330078125 119.002929688 129.997070312 c 0
 119.002929688 109.997070312 128.002929688 92.330078125 146.002929688 76.9970703125 c 0
 164.002929688 61.6640625 185.002929688 53.9970703125 209.002929688 53.9970703125 c 0
 225.669921875 53.9970703125 242.669921875 63.4970703125 260.002929688 82.4970703125 c 0
 277.3359375 101.497070312 286.002929688 119.997070312 286.002929688 137.997070312 c 0
 286.002929688 145.997070312 283.502929688 155.830078125 278.502929688 167.497070312 c 0
 273.502929688 179.1640625 267.3359375 188.331054688 260.002929688 194.998046875 c 0
EndSplineSet
EndChar

StartChar: s
Encoding: 115 115 41
Width: 451
GlyphClass: 1
Flags: W
LayerCount: 2
Fore
SplineSet
206 584 m 2
 206 648 207.669921875 690.333984375 211.002929688 711.000976562 c 0
 214.3359375 731.66796875 221.002929688 742.000976562 231.002929688 742.000976562 c 0
 241.002929688 742.000976562 247.8359375 731.833984375 251.502929688 711.500976562 c 0
 255.169921875 691.16796875 257.002929688 649.000976562 257.002929688 585.000976562 c 0
 257.002929688 506.333984375 258.8359375 459.333984375 262.502929688 444.000976562 c 0
 266.169921875 428.66796875 279.002929688 415.66796875 301.002929688 405.000976562 c 0
 349.002929688 381.66796875 383.8359375 340.500976562 405.502929688 281.500976562 c 0
 427.169921875 222.500976562 427.669921875 167.66796875 407.002929688 117.000976562 c 0
 398.3359375 93.66796875 402.668945312 72.3349609375 420.001953125 53.001953125 c 0
 436.001953125 34.3349609375 441.001953125 21.66796875 435.001953125 15.0009765625 c 0
 429.001953125 8.333984375 415.334960938 11.0009765625 394.001953125 23.0009765625 c 0
 373.334960938 34.333984375 344.66796875 34.333984375 308.000976562 23.0009765625 c 0
 274.66796875 11.0009765625 236.334960938 8.333984375 193.001953125 15.0009765625 c 0
 146.334960938 23.0009765625 112.334960938 27.16796875 91.001953125 27.5009765625 c 0
 69.6689453125 27.833984375 49.6689453125 24.0009765625 31.001953125 16.0009765625 c 0
 15.001953125 8.66796875 6.6689453125 6.3349609375 6.001953125 9.001953125 c 0
 5.3349609375 11.6689453125 12.66796875 24.001953125 28.0009765625 46.001953125 c 0
 39.333984375 63.3349609375 45.6669921875 77.501953125 47 88.501953125 c 0
 48.3330078125 99.501953125 46 111.001953125 40 123.001953125 c 0
 25.3330078125 155.668945312 20 190.168945312 24 226.501953125 c 0
 28 262.834960938 41.6669921875 297.66796875 65 331.000976562 c 0
 88.3330078125 364.333984375 116 387.666992188 148 401 c 2
 206 425 l 1
 206 584 l 2
184.002929688 229.000976562 m 0
 200.669921875 244.333984375 207.004882812 272.66796875 203.004882812 314.000976562 c 0
 200.337890625 342.66796875 196.837890625 358.834960938 192.504882812 362.501953125 c 0
 188.171875 366.168945312 176.004882812 363.001953125 156.004882812 353.001953125 c 0
 131.337890625 340.334960938 116.170898438 319.834960938 110.50390625 291.501953125 c 0
 104.836914062 263.168945312 112.00390625 241.001953125 132.00390625 225.001953125 c 0
 142.670898438 215.668945312 151.170898438 211.168945312 157.50390625 211.501953125 c 0
 163.836914062 211.834960938 172.669921875 217.66796875 184.002929688 229.000976562 c 0
326.004882812 328.001953125 m 0
 296.671875 354.668945312 277.836914062 367.3359375 269.50390625 366.002929688 c 0
 261.170898438 364.669921875 257.00390625 348.002929688 257.00390625 316.002929688 c 0
 257.00390625 259.3359375 242.170898438 217.002929688 212.50390625 189.002929688 c 0
 182.836914062 161.002929688 150.336914062 158.669921875 115.00390625 182.002929688 c 0
 87.00390625 200.669921875 70.8369140625 208.502929688 66.50390625 205.502929688 c 0
 62.1708984375 202.502929688 65.6708984375 186.669921875 77.00390625 158.002929688 c 0
 86.3369140625 129.3359375 104.169921875 106.3359375 130.502929688 89.0029296875 c 0
 156.8359375 71.669921875 184.502929688 62.169921875 213.502929688 60.5029296875 c 0
 242.502929688 58.8359375 270.8359375 65.1689453125 298.502929688 79.501953125 c 0
 326.169921875 93.8349609375 345.336914062 115.001953125 356.00390625 143.001953125 c 0
 368.670898438 171.668945312 371.837890625 205.501953125 365.504882812 244.501953125 c 0
 359.171875 283.501953125 346.004882812 311.334960938 326.004882812 328.001953125 c 0
EndSplineSet
EndChar

StartChar: t
Encoding: 116 116 42
Width: 390
GlyphClass: 1
Flags: W
LayerCount: 2
Fore
SplineSet
81 690 m 2
 122.333007812 727.333007812 167.497070312 742.497070312 216.497070312 735.497070312 c 0
 265.497070312 728.497070312 305.330078125 700.6640625 335.997070312 651.997070312 c 0
 351.330078125 627.330078125 360.497070312 597.830078125 363.497070312 563.497070312 c 0
 366.497070312 529.1640625 366.6640625 451.331054688 363.997070312 329.998046875 c 0
 362.6640625 149.998046875 366.331054688 53.998046875 374.998046875 41.998046875 c 0
 384.331054688 25.998046875 384.998046875 15.6650390625 376.998046875 10.998046875 c 0
 368.998046875 6.3310546875 357.331054688 9.998046875 341.998046875 21.998046875 c 0
 332.665039062 30.6650390625 323.165039062 34.998046875 313.498046875 34.998046875 c 0
 303.831054688 34.998046875 290.6640625 31.3310546875 273.997070312 23.998046875 c 0
 219.330078125 -0.001953125 164.997070312 -0.001953125 110.997070312 23.998046875 c 0
 94.330078125 31.3310546875 81.330078125 34.998046875 71.9970703125 34.998046875 c 0
 62.6640625 34.998046875 52.6640625 30.6650390625 41.9970703125 21.998046875 c 0
 30.6640625 13.3310546875 21.3310546875 8.8310546875 13.998046875 8.498046875 c 0
 6.6650390625 8.1650390625 3.33203125 12.33203125 3.9990234375 20.9990234375 c 0
 4.666015625 29.666015625 10.3330078125 38.9990234375 21 48.9990234375 c 0
 32.3330078125 59.666015625 38.5 70.166015625 39.5 80.4990234375 c 0
 40.5 90.83203125 38 105.33203125 32 123.999023438 c 0
 27.3330078125 136.666015625 23.8330078125 170.833007812 21.5 226.5 c 0
 19.1669921875 282.166992188 19 342 21 406 c 2
 26 642 l 1
 81 690 l 2
275.997070312 646.997070312 m 0
 264.6640625 658.997070312 250.83203125 668.995117188 234.499023438 676.995117188 c 0
 218.166015625 684.995117188 203.999023438 688.995117188 191.999023438 688.995117188 c 0
 179.999023438 688.995117188 165.83203125 684.995117188 149.499023438 676.995117188 c 0
 133.166015625 668.995117188 119.999023438 658.995117188 109.999023438 646.995117188 c 0
 81.9990234375 619.662109375 67.666015625 577.329101562 66.9990234375 519.99609375 c 0
 66.33203125 462.663085938 79.6650390625 404.99609375 106.998046875 346.99609375 c 0
 131.665039062 295.663085938 166.33203125 244.330078125 210.999023438 192.997070312 c 0
 255.666015625 141.6640625 284.499023438 120.331054688 297.499023438 128.998046875 c 0
 310.499023438 137.665039062 316.999023438 218.998046875 316.999023438 372.998046875 c 0
 316.999023438 454.331054688 316.166015625 509.831054688 314.499023438 539.498046875 c 0
 312.83203125 569.165039062 309.665039062 591.165039062 304.998046875 605.498046875 c 0
 300.331054688 619.831054688 290.6640625 633.6640625 275.997070312 646.997070312 c 0
217.998046875 114.995117188 m 0
 204.665039062 126.995117188 187.998046875 144.662109375 167.998046875 167.995117188 c 0
 147.998046875 191.328125 131.331054688 213.661132812 117.998046875 234.994140625 c 2
 63.998046875 312.994140625 l 1
 70.998046875 214.994140625 l 2
 74.998046875 159.661132812 87.498046875 119.161132812 108.498046875 93.494140625 c 0
 129.498046875 67.8271484375 159.998046875 54.994140625 199.998046875 54.994140625 c 0
 233.331054688 54.994140625 251.498046875 59.3271484375 254.498046875 67.994140625 c 0
 257.498046875 76.6611328125 245.331054688 92.328125 217.998046875 114.995117188 c 0
EndSplineSet
EndChar

StartChar: u
Encoding: 117 117 43
Width: 334
GlyphClass: 1
Flags: W
LayerCount: 2
Fore
SplineSet
77.4990234375 693.302734375 m 0
 102.331054688 712.322265625 129.803710938 722.887695312 159.91796875 725.001953125 c 0
 190.033203125 727.115234375 216.713867188 719.71875 239.9609375 702.811523438 c 0
 261.622070312 686.43359375 267.961914062 675.338867188 258.98046875 669.52734375 c 0
 250.52734375 663.715820312 233.092773438 666.885742188 206.67578125 679.037109375 c 0
 174.975585938 693.831054688 146.4453125 693.962890625 121.084960938 679.43359375 c 0
 95.724609375 664.904296875 76.705078125 637.827148438 64.025390625 598.202148438 c 0
 57.1572265625 572.314453125 54.2509765625 552.10546875 55.3076171875 537.576171875 c 0
 56.3642578125 523.046875 62.17578125 504.951171875 72.7421875 483.290039062 c 0
 87.5361328125 454.231445312 106.423828125 435.079101562 129.40625 425.833984375 c 0
 152.388671875 416.587890625 183.95703125 415.927734375 224.110351562 423.852539062 c 2
 279.584960938 433.362304688 l 1
 279.584960938 365.20703125 l 2
 279.584960938 341.9609375 281.434570312 325.318359375 285.1328125 315.280273438 c 0
 288.831054688 305.2421875 295.170898438 300.22265625 304.15234375 300.22265625 c 0
 311.020507812 300.22265625 316.83203125 298.76953125 321.586914062 295.86328125 c 0
 326.341796875 292.958007812 328.71875 289.65625 328.71875 285.958007812 c 0
 328.71875 277.504882812 320.529296875 269.051757812 304.151367188 260.598632812 c 0
 295.169921875 257.428710938 288.830078125 248.182617188 285.131835938 232.861328125 c 0
 281.43359375 217.540039062 279.583984375 192.97265625 279.583984375 159.159179688 c 0
 279.583984375 96.287109375 270.337890625 54.8134765625 251.846679688 34.7373046875 c 0
 237.052734375 18.88671875 220.674804688 9.640625 202.711914062 6.9990234375 c 0
 184.748046875 4.357421875 168.10546875 7.52734375 152.784179688 16.5087890625 c 0
 137.462890625 25.490234375 124.783203125 39.623046875 114.745117188 58.9072265625 c 0
 104.70703125 78.19140625 99.6875 100.249023438 99.6875 125.081054688 c 0
 99.6875 147.798828125 114.348632812 177.252929688 143.670898438 213.443359375 c 0
 172.994140625 249.634765625 196.901367188 267.73046875 215.392578125 267.73046875 c 0
 219.090820312 267.73046875 222.392578125 272.881835938 225.298828125 283.18359375 c 0
 228.204101562 293.486328125 229.657226562 306.298828125 229.657226562 321.620117188 c 0
 229.657226562 346.98046875 227.280273438 362.038085938 222.525390625 366.79296875 c 0
 217.770507812 371.547851562 204.297851562 372.33984375 182.107421875 369.169921875 c 0
 169.427734375 367.056640625 155.163085938 367.188476562 139.3125 369.56640625 c 0
 123.461914062 371.944335938 111.045898438 375.774414062 102.064453125 381.057617188 c 0
 78.818359375 392.680664062 64.025390625 392.944335938 57.6845703125 381.849609375 c 0
 55.04296875 378.151367188 50.2880859375 374.453125 43.419921875 370.754882812 c 0
 36.5517578125 367.056640625 29.68359375 365.20703125 22.8154296875 365.20703125 c 0
 12.2490234375 365.20703125 6.5693359375 367.056640625 5.77734375 370.754882812 c 0
 4.9853515625 374.453125 8.5517578125 381.057617188 16.4765625 390.567382812 c 0
 23.8740234375 400.077148438 27.96875 411.3046875 28.7607421875 424.249023438 c 0
 29.552734375 437.193359375 26.779296875 456.081054688 20.439453125 480.912109375 c 0
 9.873046875 523.178710938 9.6083984375 563.596679688 19.646484375 602.165039062 c 0
 29.6845703125 640.733398438 48.96875 671.112304688 77.4990234375 693.302734375 c 0
227.28125 140.928710938 m 0
 229.922851562 182.666992188 227.4140625 206.970703125 219.752929688 213.838867188 c 0
 212.091796875 220.70703125 197.166015625 211.725585938 174.975585938 186.893554688 c 0
 162.295898438 173.685546875 154.37109375 157.04296875 151.201171875 136.966796875 c 0
 148.03125 116.889648438 150.012695312 99.4541015625 157.14453125 84.66015625 c 0
 164.27734375 69.8671875 174.9765625 62.470703125 189.241210938 62.470703125 c 0
 202.977539062 62.470703125 212.090820312 67.357421875 216.58203125 77.1318359375 c 0
 221.073242188 86.90625 224.639648438 108.171875 227.28125 140.928710938 c 0
EndSplineSet
EndChar

StartChar: w
Encoding: 119 119 44
Width: 430
GlyphClass: 1
Flags: W
LayerCount: 2
Fore
SplineSet
128 711 m 0
 152.666992188 727.666992188 180.331054688 736 210.998046875 736 c 0
 238.998046875 736 267.498046875 722.833007812 296.498046875 696.5 c 0
 325.498046875 670.166992188 339.998046875 645 339.998046875 621 c 0
 339.998046875 611.666992188 344.331054688 598.666992188 352.998046875 582 c 0
 361.665039062 565.333007812 371.665039062 550 382.998046875 536 c 0
 414.998046875 499.333007812 424.998046875 478 412.998046875 472 c 0
 404.998046875 469.333007812 389.331054688 475.333007812 365.998046875 490 c 0
 346.665039062 503.333007812 334.665039062 509.833007812 329.998046875 509.5 c 0
 325.331054688 509.166992188 320.998046875 502.333984375 316.998046875 489.000976562 c 0
 254.331054688 276.333984375 222.998046875 150.333984375 222.998046875 111.000976562 c 0
 222.998046875 81.66796875 232.498046875 64.0009765625 251.498046875 58.0009765625 c 0
 270.498046875 52.0009765625 289.331054688 60.333984375 307.998046875 83.0009765625 c 0
 326.665039062 107.000976562 339.998046875 113.66796875 347.998046875 103.000976562 c 0
 355.998046875 91.0009765625 351.331054688 71.333984375 333.998046875 44.0009765625 c 0
 317.998046875 20.0009765625 296.998046875 7.0009765625 270.998046875 5.0009765625 c 0
 244.998046875 3.0009765625 222.165039062 11.16796875 202.498046875 29.5009765625 c 0
 182.831054688 47.833984375 172.998046875 72.333984375 172.998046875 103.000976562 c 0
 172.998046875 140.333984375 203.665039062 256.666992188 264.998046875 452 c 0
 268.331054688 463.333007812 266.998046875 470.166015625 260.998046875 472.499023438 c 0
 254.998046875 474.83203125 241.331054688 474.665039062 219.998046875 471.998046875 c 0
 204.665039062 470.665039062 188.33203125 471.83203125 170.999023438 475.499023438 c 0
 153.666015625 479.166015625 140.666015625 483.999023438 131.999023438 489.999023438 c 0
 117.33203125 501.33203125 105.999023438 506.999023438 97.9990234375 506.999023438 c 0
 89.9990234375 506.999023438 77.666015625 501.33203125 60.9990234375 489.999023438 c 0
 34.33203125 472.666015625 18.33203125 467.833007812 12.9990234375 475.5 c 0
 7.666015625 483.166992188 15.3330078125 500 36 526 c 0
 45.3330078125 537.333007812 54.5 553 63.5 573 c 0
 72.5 593 78 611 80 627 c 0
 83.3330078125 643 89.5 659 98.5 675 c 0
 107.5 691 117.333007812 703 128 711 c 0
262.997070312 659 m 0
 256.330078125 666.333007812 247.497070312 672.665039062 236.497070312 677.998046875 c 0
 225.497070312 683.331054688 215.330078125 685.998046875 205.997070312 685.998046875 c 0
 185.997070312 685.998046875 167.330078125 676.998046875 149.997070312 658.998046875 c 0
 132.6640625 640.998046875 123.997070312 621.998046875 123.997070312 601.998046875 c 0
 123.997070312 584.665039062 132.497070312 566.498046875 149.497070312 547.498046875 c 0
 166.497070312 528.498046875 183.330078125 518.998046875 199.997070312 518.998046875 c 0
 219.330078125 518.998046875 236.497070312 523.831054688 251.497070312 533.498046875 c 0
 266.497070312 543.165039062 276.997070312 554.83203125 282.997070312 568.499023438 c 0
 288.997070312 582.166015625 290.497070312 597.333007812 287.497070312 614 c 0
 284.497070312 630.666992188 276.330078125 645.666992188 262.997070312 659 c 0
EndSplineSet
EndChar

StartChar: x
Encoding: 120 120 45
Width: 366
GlyphClass: 1
Flags: W
LayerCount: 2
Fore
SplineSet
119 688 m 0
 155 728 177.999023438 743.66796875 187.999023438 735.000976562 c 0
 194.666015625 729.66796875 191.333007812 713.66796875 178 687.000976562 c 0
 162 655.000976562 154.166992188 614.500976562 154.5 565.500976562 c 0
 154.833007812 516.500976562 163 480.000976562 179 456.000976562 c 0
 196.333007812 432.000976562 221.333007812 420.000976562 254 420.000976562 c 0
 286 420.000976562 302 411.66796875 302 395.000976562 c 0
 302 378.333984375 288 370.000976562 260 370.000976562 c 0
 210.666992188 370.000976562 163.833984375 348.333984375 119.500976562 305.000976562 c 0
 75.16796875 261.66796875 53.0009765625 215.66796875 53.0009765625 167.000976562 c 0
 53.0009765625 139.000976562 67.333984375 113.000976562 96.0009765625 89.0009765625 c 0
 124.66796875 65.0009765625 156.000976562 53.0009765625 190.000976562 53.0009765625 c 0
 210.66796875 53.0009765625 223.334960938 54.833984375 228.001953125 58.5009765625 c 0
 232.668945312 62.16796875 232.668945312 70.0009765625 228.001953125 82.0009765625 c 0
 200.001953125 146.66796875 202.001953125 198.334960938 234.001953125 237.001953125 c 0
 247.334960938 253.668945312 258.001953125 263.668945312 266.001953125 267.001953125 c 0
 274.001953125 270.334960938 284.668945312 268.001953125 298.001953125 260.001953125 c 0
 316.668945312 249.334960938 328.3359375 223.16796875 333.002929688 181.500976562 c 0
 337.669921875 139.833984375 332.669921875 110.333984375 318.002929688 93.0009765625 c 0
 310.002929688 84.333984375 306.8359375 75.6669921875 308.502929688 67 c 0
 310.169921875 58.3330078125 317.002929688 47 329.002929688 33 c 0
 346.3359375 13.6669921875 354.002929688 3.6669921875 352.002929688 3 c 0
 350.669921875 3 342.669921875 5.3330078125 328.002929688 10 c 0
 306.669921875 19.3330078125 289.669921875 23.3330078125 277.002929688 22 c 0
 273.669921875 21.3330078125 245.002929688 17.3330078125 191.002929688 10 c 0
 159.002929688 5.3330078125 136.002929688 5.5 122.002929688 10.5 c 0
 108.002929688 15.5 87.669921875 31.3330078125 61.0029296875 58 c 0
 16.3359375 102 -1.3310546875 153 8.001953125 211 c 0
 17.3349609375 269 50.66796875 317.666992188 108.000976562 357 c 2
 166.000976562 395 l 1
 134.000976562 435 l 2
 113.333984375 461.666992188 103.000976562 498.666992188 103.000976562 546 c 0
 103.000976562 581.333007812 101.16796875 601.833007812 97.5009765625 607.5 c 0
 93.833984375 613.166992188 83.6669921875 611.666992188 67 603 c 0
 58.3330078125 597.666992188 49.3330078125 594.166992188 40 592.5 c 0
 30.6669921875 590.833007812 25 592 23 596 c 0
 15.6669921875 602.666992188 22.6669921875 611.666992188 44 623 c 0
 67.3330078125 638.333007812 92.3330078125 660 119 688 c 0
280.999023438 142.000976562 m 0
 287.666015625 160.66796875 287.666015625 180.000976562 280.999023438 200.000976562 c 0
 277.666015625 213.333984375 275.166015625 220.000976562 273.499023438 220.000976562 c 0
 271.83203125 220.000976562 267.33203125 213.333984375 259.999023438 200.000976562 c 0
 251.999023438 180.000976562 251.999023438 160.66796875 259.999023438 142.000976562 c 0
 267.33203125 127.333984375 271.83203125 120.000976562 273.499023438 120.000976562 c 0
 275.166015625 120.000976562 277.666015625 127.333984375 280.999023438 142.000976562 c 0
EndSplineSet
EndChar

StartChar: y
Encoding: 121 121 46
Width: 390
GlyphClass: 1
Flags: W
LayerCount: 2
Fore
SplineSet
51 398 m 0
 51 544.666992188 52.333984375 638.171875 55.0009765625 678.504882812 c 0
 57.66796875 718.837890625 64.5009765625 739.004882812 75.5009765625 739.004882812 c 0
 86.5009765625 739.004882812 93.5009765625 720.171875 96.5009765625 682.504882812 c 0
 99.5009765625 644.837890625 101.000976562 558.670898438 101.000976562 424.00390625 c 0
 101.000976562 292.670898438 102.66796875 205.50390625 106.000976562 162.50390625 c 0
 109.333984375 119.50390625 116.666992188 92.6708984375 128 82.00390625 c 0
 144.666992188 65.3369140625 167.833984375 57.169921875 197.500976562 57.5029296875 c 0
 227.16796875 57.8359375 251.334960938 66.6689453125 270.001953125 84.001953125 c 0
 283.334960938 95.3349609375 291.66796875 119.834960938 295.000976562 157.501953125 c 0
 298.333984375 195.168945312 300.000976562 284.3359375 300.000976562 425.002929688 c 0
 300.000976562 473.669921875 300.333984375 513.169921875 301.000976562 543.502929688 c 0
 301.66796875 573.8359375 302.334960938 601.668945312 303.001953125 627.001953125 c 0
 303.668945312 652.334960938 304.668945312 671.501953125 306.001953125 684.501953125 c 0
 307.334960938 697.501953125 309.001953125 708.501953125 311.001953125 717.501953125 c 0
 313.001953125 726.501953125 315.168945312 732.334960938 317.501953125 735.001953125 c 0
 319.834960938 737.668945312 323.334960938 739.001953125 328.001953125 739.001953125 c 0
 333.334960938 739.001953125 337.501953125 735.168945312 340.501953125 727.501953125 c 0
 343.501953125 719.834960938 346.001953125 704.501953125 348.001953125 681.501953125 c 0
 350.001953125 658.501953125 350.834960938 625.001953125 350.501953125 581.001953125 c 0
 350.168945312 537.001953125 350.001953125 478.668945312 350.001953125 406.001953125 c 0
 348.668945312 183.334960938 354.668945312 63.66796875 368.001953125 47.0009765625 c 0
 382.668945312 30.333984375 386.501953125 19.0009765625 379.501953125 13.0009765625 c 0
 372.501953125 7.0009765625 358.668945312 9.333984375 338.001953125 20.0009765625 c 0
 315.334960938 31.333984375 287.334960938 31.0009765625 254.001953125 19.0009765625 c 0
 233.334960938 10.333984375 215.66796875 6.1669921875 201.000976562 6.5 c 0
 186.333984375 6.8330078125 167.333984375 11 144.000976562 19 c 0
 105.333984375 33.6669921875 74.333984375 34.6669921875 51.0009765625 22 c 0
 39.66796875 17.3330078125 30.66796875 15.5 24.0009765625 16.5 c 0
 17.333984375 17.5 14.6669921875 21.1669921875 16 27.5 c 0
 17.3330078125 33.8330078125 23.3330078125 40.3330078125 34 47 c 0
 45.3330078125 53.6669921875 51 170.666992188 51 398 c 0
184.000976562 664.504882812 m 0
 184.000976562 684.837890625 185.833984375 702.3359375 189.500976562 717.002929688 c 0
 193.16796875 731.669921875 197.000976562 739.002929688 201.000976562 739.002929688 c 0
 205.66796875 739.002929688 209.66796875 731.8359375 213.000976562 717.502929688 c 0
 216.333984375 703.169921875 218.000976562 685.336914062 218.000976562 664.00390625 c 0
 218.000976562 642.670898438 216.333984375 624.837890625 213.000976562 610.504882812 c 0
 209.66796875 596.171875 205.66796875 589.004882812 201.000976562 589.004882812 c 0
 197.000976562 589.004882812 193.16796875 596.504882812 189.500976562 611.504882812 c 0
 185.833984375 626.504882812 184.000976562 644.171875 184.000976562 664.504882812 c 0
EndSplineSet
EndChar

StartChar: sh
Encoding: 65539 -1 49
Width: 524
GlyphClass: 1
Flags: W
LayerCount: 2
Fore
SplineSet
48 410 m 0
 48 550.666992188 49.33203125 640.831054688 51.9990234375 680.498046875 c 0
 54.666015625 720.165039062 61.4990234375 739.998046875 72.4990234375 739.998046875 c 0
 83.4990234375 739.998046875 90.33203125 721.665039062 92.9990234375 684.998046875 c 0
 95.666015625 648.331054688 96.9990234375 562.998046875 96.9990234375 428.998046875 c 0
 96.9990234375 372.998046875 97.4990234375 326.665039062 98.4990234375 289.998046875 c 0
 99.4990234375 253.331054688 100.999023438 220.1640625 102.999023438 190.497070312 c 0
 104.999023438 160.830078125 107.33203125 137.997070312 109.999023438 121.997070312 c 0
 112.666015625 105.997070312 116.666015625 92.6640625 121.999023438 81.9970703125 c 0
 127.33203125 71.330078125 133.33203125 64.330078125 139.999023438 60.9970703125 c 0
 146.666015625 57.6640625 154.666015625 55.9970703125 163.999023438 55.9970703125 c 0
 179.33203125 55.9970703125 190.999023438 60.1640625 198.999023438 68.4970703125 c 0
 206.999023438 76.830078125 213.666015625 95.330078125 218.999023438 123.997070312 c 0
 224.33203125 152.6640625 227.83203125 189.6640625 229.499023438 234.997070312 c 0
 231.166015625 280.330078125 231.999023438 344.997070312 231.999023438 428.997070312 c 0
 231.999023438 562.330078125 233.33203125 647.497070312 235.999023438 684.497070312 c 0
 238.666015625 721.497070312 245.333007812 739.997070312 256 739.997070312 c 0
 266.666992188 739.997070312 273.5 721.497070312 276.5 684.497070312 c 0
 279.5 647.497070312 281 561.997070312 281 427.997070312 c 0
 281 293.997070312 282.5 206.997070312 285.5 166.997070312 c 0
 288.5 126.997070312 296.666992188 99.9970703125 310 85.9970703125 c 0
 327.333007812 65.9970703125 346.333007812 56.1640625 367 56.4970703125 c 0
 387.666992188 56.830078125 403.333984375 66.9970703125 414.000976562 86.9970703125 c 0
 425.333984375 109.6640625 431.000976562 223.6640625 431.000976562 428.997070312 c 0
 431.000976562 562.330078125 432.500976562 647.497070312 435.500976562 684.497070312 c 0
 438.500976562 721.497070312 445.500976562 739.997070312 456.500976562 739.997070312 c 0
 467.500976562 739.997070312 474.333984375 719.830078125 477.000976562 679.497070312 c 0
 479.66796875 639.1640625 481.000976562 546.6640625 481.000976562 401.997070312 c 0
 481.000976562 176.6640625 488.000976562 56.9970703125 502.000976562 42.9970703125 c 0
 517.333984375 27.6640625 519.333984375 17.3310546875 508.000976562 11.998046875 c 0
 499.333984375 7.998046875 487.666992188 11.6650390625 473 22.998046875 c 0
 455.666992188 38.3310546875 440.333984375 39.3310546875 427.000976562 25.998046875 c 0
 413.66796875 11.3310546875 392.500976562 4.8310546875 363.500976562 6.498046875 c 0
 334.500976562 8.1650390625 311.333984375 17.6650390625 294.000976562 34.998046875 c 0
 280.66796875 47.6650390625 270.66796875 53.83203125 264.000976562 53.4990234375 c 0
 257.333984375 53.166015625 246.666992188 45.666015625 232 30.9990234375 c 0
 208.666992188 11.666015625 182 5.666015625 152 12.9990234375 c 0
 120 20.9990234375 95.3330078125 25.166015625 78 25.4990234375 c 0
 60.6669921875 25.83203125 42.6669921875 21.9990234375 24 13.9990234375 c 0
 8 7.33203125 0 5.33203125 0 7.9990234375 c 0
 -0 10.666015625 6.3330078125 20.9990234375 19 38.9990234375 c 0
 31.6669921875 56.33203125 39.6669921875 86.83203125 43 130.499023438 c 0
 46.3330078125 174.166015625 48 267.333007812 48 410 c 0
EndSplineSet
Ligature2: "'rlig' Required Ligatures lookup 1 subtable" s h
Ligature2: "'rlig' Required Ligatures lookup 0 subtable" s h
EndChar

StartChar: S_h
Encoding: 65540 -1 50
Width: 600
GlyphClass: 1
Flags: W
LayerCount: 2
Fore
SplineSet
52 708 m 0
 63.3330078125 719.333007812 75.4970703125 729.165039062 88.4970703125 737.498046875 c 0
 101.497070312 745.831054688 111.997070312 749.998046875 119.997070312 749.998046875 c 0
 131.330078125 749.998046875 138.997070312 744.998046875 142.997070312 734.998046875 c 0
 146.997070312 724.998046875 145.997070312 713.498046875 139.997070312 700.498046875 c 0
 133.997070312 687.498046875 124.6640625 676.998046875 111.997070312 668.998046875 c 0
 95.9970703125 660.331054688 86.1640625 641.331054688 82.4970703125 611.998046875 c 0
 78.830078125 582.665039062 76.9970703125 504.33203125 76.9970703125 376.999023438 c 2
 76.9970703125 104.999023438 l 1
 182.997070312 199.999023438 l 2
 251.6640625 263.33203125 290.6640625 294.665039062 299.997070312 293.998046875 c 0
 304.6640625 293.998046875 318.6640625 284.498046875 341.997070312 265.498046875 c 0
 365.330078125 246.498046875 390.330078125 223.665039062 416.997070312 196.998046875 c 2
 517.997070312 101.998046875 l 1
 517.997070312 374.998046875 l 2
 517.997070312 503.665039062 516.1640625 582.665039062 512.497070312 611.998046875 c 0
 508.830078125 641.331054688 498.997070312 660.331054688 482.997070312 668.998046875 c 0
 470.330078125 676.998046875 460.997070312 687.498046875 454.997070312 700.498046875 c 0
 448.997070312 713.498046875 447.6640625 724.998046875 450.997070312 734.998046875 c 0
 454.330078125 744.998046875 461.997070312 749.998046875 473.997070312 749.998046875 c 0
 481.997070312 749.998046875 492.6640625 745.831054688 505.997070312 737.498046875 c 0
 519.330078125 729.165039062 531.663085938 719.33203125 542.99609375 707.999023438 c 0
 563.663085938 687.33203125 575.830078125 661.499023438 579.497070312 630.499023438 c 0
 583.1640625 599.499023438 584.997070312 501.33203125 584.997070312 335.999023438 c 0
 584.997070312 168.666015625 580.997070312 69.9990234375 572.997070312 39.9990234375 c 0
 565.6640625 8.666015625 549.997070312 -1.333984375 525.997070312 9.9990234375 c 0
 508.6640625 18.666015625 469.331054688 51.3330078125 407.998046875 108 c 2
 298.998046875 212 l 1
 191.998046875 110 l 2
 159.998046875 78.6669921875 130.831054688 53.5 104.498046875 34.5 c 0
 78.1650390625 15.5 59.33203125 6 47.9990234375 6 c 2
 9.9990234375 6 l 1
 9.9990234375 336 l 2
 9.9990234375 500.666992188 11.83203125 598.666992188 15.4990234375 630 c 0
 19.166015625 661.333007812 31.3330078125 687.333007812 52 708 c 0
EndSplineSet
Ligature2: "'rlig' Required Ligatures lookup 1 subtable" S h
Ligature2: "'rlig' Required Ligatures lookup 0 subtable" S h
EndChar

StartChar: dh
Encoding: 65541 -1 51
Width: 422
GlyphClass: 1
Flags: W
LayerCount: 2
Fore
SplineSet
122 717 m 0
 146.666992188 733.666992188 174.333007812 741.998046875 205 741.998046875 c 0
 233 741.998046875 261.5 728.831054688 290.5 702.498046875 c 0
 319.5 676.165039062 334 650.998046875 334 626.998046875 c 0
 334 617.665039062 338.333007812 604.665039062 347 587.998046875 c 0
 355.666992188 571.331054688 365.666992188 555.998046875 377 541.998046875 c 0
 408.333007812 505.998046875 418.333007812 484.998046875 407 478.998046875 c 0
 399.666992188 474.998046875 383.666992188 481.665039062 359 498.998046875 c 2
 317 524.998046875 l 1
 317 302.998046875 l 2
 317 202.998046875 315.166992188 139.165039062 311.5 111.498046875 c 0
 307.833007812 83.8310546875 298.666015625 61.6640625 283.999023438 44.9970703125 c 0
 270.666015625 30.330078125 248.999023438 19.4970703125 218.999023438 12.4970703125 c 0
 188.999023438 5.4970703125 161.83203125 3.830078125 137.499023438 7.4970703125 c 0
 113.166015625 11.1640625 100.999023438 19.3310546875 100.999023438 31.998046875 c 0
 100.999023438 48.6650390625 127.33203125 58.6650390625 179.999023438 61.998046875 c 2
 258.999023438 66.998046875 l 1
 263.999023438 277.998046875 l 1
 268.999023438 489.998046875 l 1
 213.999023438 481.998046875 l 2
 177.33203125 476.665039062 147.999023438 481.33203125 125.999023438 495.999023438 c 0
 111.33203125 507.33203125 99.9990234375 512.999023438 91.9990234375 512.999023438 c 0
 83.9990234375 512.999023438 71.666015625 507.33203125 54.9990234375 495.999023438 c 0
 28.33203125 478.666015625 12.33203125 473.833007812 6.9990234375 481.5 c 0
 1.666015625 489.166992188 9.3330078125 506 30 532 c 0
 39.3330078125 543.333007812 48.5 559 57.5 579 c 0
 66.5 599 72 617 74 633 c 0
 77.3330078125 649 83.5 665 92.5 681 c 0
 101.5 697 111.333007812 709 122 717 c 0
259.999023438 649.998046875 m 0
 244.666015625 673.331054688 225.66796875 686.333984375 203.000976562 689.000976562 c 0
 180.333984375 691.66796875 160.500976562 684.66796875 143.500976562 668.000976562 c 0
 126.500976562 651.333984375 118.000976562 629.000976562 118.000976562 601.000976562 c 0
 118.000976562 576.333984375 126.66796875 557.166992188 144.000976562 543.5 c 0
 161.333984375 529.833007812 181.666992188 525 205 529 c 0
 228.333007812 533 246.666015625 545.666992188 259.999023438 567 c 0
 272.666015625 586.333007812 278.999023438 600.166015625 278.999023438 608.499023438 c 0
 278.999023438 616.83203125 272.666015625 630.665039062 259.999023438 649.998046875 c 0
EndSplineSet
Ligature2: "'rlig' Required Ligatures lookup 1 subtable" d h
Ligature2: "'rlig' Required Ligatures lookup 0 subtable" d h
EndChar

StartChar: K_h
Encoding: 65542 -1 52
Width: 273
GlyphClass: 1
Flags: W
LayerCount: 2
Fore
SplineSet
79 864 m 0
 115.666992188 894.666992188 137.999023438 911.333007812 145.999023438 914 c 0
 152.666015625 914 173.666015625 895 208.999023438 857 c 0
 239.666015625 825.666992188 251.999023438 803.666992188 245.999023438 791 c 0
 240.666015625 779 224.333007812 784.333007812 197 807 c 0
 191.666992188 811 186 815.666992188 180 821 c 2
 136 864 l 1
 96 822 l 2
 69.3330078125 794.666992188 50.5 786.666992188 39.5 798 c 0
 28.5 809.333007812 41.6669921875 831.333007812 79 864 c 0
29.9990234375 699.999023438 m 0
 29.9990234375 714.666015625 35.83203125 723.6640625 47.4990234375 726.997070312 c 0
 59.166015625 730.330078125 88.9990234375 731.997070312 136.999023438 731.997070312 c 0
 184.999023438 731.997070312 214.83203125 730.330078125 226.499023438 726.997070312 c 0
 238.166015625 723.6640625 243.999023438 714.6640625 243.999023438 699.997070312 c 0
 243.999023438 677.330078125 232.999023438 665.997070312 210.999023438 665.997070312 c 0
 194.999023438 665.997070312 185.499023438 652.330078125 182.499023438 624.997070312 c 0
 179.499023438 597.6640625 177.999023438 512.997070312 177.999023438 370.997070312 c 2
 177.999023438 74.9970703125 l 1
 219.999023438 74.9970703125 l 2
 234.666015625 74.9970703125 244.999023438 72.4970703125 250.999023438 67.4970703125 c 0
 256.999023438 62.4970703125 259.999023438 53.9970703125 259.999023438 41.9970703125 c 0
 259.999023438 26.6640625 253.83203125 17.3310546875 241.499023438 13.998046875 c 0
 229.166015625 10.6650390625 196.999023438 8.998046875 144.999023438 8.998046875 c 0
 92.9990234375 8.998046875 60.83203125 10.8310546875 48.4990234375 14.498046875 c 0
 36.166015625 18.1650390625 29.9990234375 27.33203125 29.9990234375 41.9990234375 c 0
 29.9990234375 53.9990234375 33.166015625 62.4990234375 39.4990234375 67.4990234375 c 0
 45.83203125 72.4990234375 56.33203125 74.9990234375 70.9990234375 74.9990234375 c 2
 111.999023438 74.9990234375 l 1
 111.999023438 370.999023438 l 1
 111.999023438 665.999023438 l 1
 70.9990234375 665.999023438 l 2
 56.33203125 665.999023438 45.83203125 668.499023438 39.4990234375 673.499023438 c 0
 33.166015625 678.499023438 29.9990234375 687.33203125 29.9990234375 699.999023438 c 0
EndSplineSet
Ligature2: "'rlig' Required Ligatures lookup 1 subtable" K h
Ligature2: "'rlig' Required Ligatures lookup 0 subtable" K h
EndChar

StartChar: D_h
Encoding: 65543 -1 53
Width: 612
GlyphClass: 1
Flags: W
LayerCount: 2
Fore
SplineSet
60 711 m 0
 74.6669921875 725.666992188 88.66796875 735.666015625 102.000976562 740.999023438 c 0
 115.333984375 746.33203125 135.333984375 749.665039062 162.000976562 750.998046875 c 0
 188.66796875 752.331054688 238.66796875 752.998046875 312.000976562 752.998046875 c 2
 333.000976562 752.998046875 l 2
 373.66796875 752.998046875 402.500976562 753.331054688 419.500976562 753.998046875 c 0
 436.500976562 754.665039062 457.333984375 752.33203125 482.000976562 746.999023438 c 0
 506.66796875 741.666015625 522.66796875 737.999023438 530.000976562 735.999023438 c 0
 537.333984375 733.999023438 547.000976562 724.999023438 559.000976562 708.999023438 c 0
 571.000976562 692.999023438 577.833984375 680.166015625 579.500976562 670.499023438 c 0
 581.16796875 660.83203125 583.66796875 639.83203125 587.000976562 607.499023438 c 0
 590.333984375 575.166015625 592.000976562 547.666015625 592.000976562 524.999023438 c 2
 592.000976562 409.999023438 l 1
 592.000976562 377.999023438 l 2
 592.000976562 237.33203125 590.333984375 152.999023438 587.000976562 124.999023438 c 0
 583.66796875 96.9990234375 571.000976562 72.33203125 549.000976562 50.9990234375 c 0
 535.66796875 36.33203125 522.16796875 26.4990234375 508.500976562 21.4990234375 c 0
 494.833984375 16.4990234375 474.333984375 13.166015625 447.000976562 11.4990234375 c 0
 419.66796875 9.83203125 369.334960938 8.9990234375 296.001953125 8.9990234375 c 0
 201.334960938 8.9990234375 140.66796875 10.83203125 114.000976562 14.4990234375 c 0
 87.333984375 18.166015625 66.333984375 27.666015625 51.0009765625 42.9990234375 c 0
 37.66796875 57.666015625 28.3349609375 71.3330078125 23.001953125 84 c 0
 17.6689453125 96.6669921875 17.1689453125 107.166992188 21.501953125 115.5 c 0
 25.8349609375 123.833007812 35.3349609375 128 50.001953125 128 c 0
 58.001953125 128 66.001953125 125.5 74.001953125 120.5 c 0
 82.001953125 115.5 88.001953125 109.666992188 92.001953125 103 c 0
 95.3349609375 92.3330078125 110.16796875 85.5 136.500976562 82.5 c 0
 162.833984375 79.5 214.666992188 78 292 78 c 0
 420 78 490.666992188 84.5 504 97.5 c 0
 517.333007812 110.5 524 161 524 249 c 2
 524 381 l 1
 313 381 l 2
 239.666992188 381 189.5 381.833007812 162.5 383.5 c 0
 135.5 385.166992188 115.166992188 388.666992188 101.5 394 c 0
 87.8330078125 399.333007812 74 409 60 423 c 0
 29.3330078125 452.333007812 14 500.333007812 14 567 c 0
 14 633.666992188 29.3330078125 681.666992188 60 711 c 0
504.000976562 665.999023438 m 0
 491.333984375 679.33203125 425.16796875 685.997070312 305.500976562 685.997070312 c 0
 185.833984375 685.997070312 119.000976562 679.330078125 105.000976562 665.997070312 c 0
 99.66796875 659.330078125 95.0009765625 646.163085938 91.0009765625 626.49609375 c 0
 87.0009765625 606.829101562 85.0009765625 585.99609375 85.0009765625 563.99609375 c 0
 85.0009765625 527.99609375 87.5009765625 504.329101562 92.5009765625 492.99609375 c 0
 97.5009765625 481.663085938 109.66796875 472.330078125 129.000976562 464.997070312 c 0
 155.66796875 453.6640625 229.000976562 448.331054688 349.000976562 448.998046875 c 2
 524.000976562 448.998046875 l 1
 524.000976562 546.998046875 l 2
 524.000976562 574.331054688 522.333984375 599.331054688 519.000976562 621.998046875 c 0
 515.66796875 644.665039062 510.66796875 659.33203125 504.000976562 665.999023438 c 0
EndSplineSet
Ligature2: "'rlig' Required Ligatures lookup 1 subtable" D h
Ligature2: "'rlig' Required Ligatures lookup 0 subtable" D h
EndChar

StartChar: kh
Encoding: 65544 -1 54
Width: 444
GlyphClass: 1
Flags: W
LayerCount: 2
Fore
SplineSet
102 717.5 m 0
 102 723.833007812 104.336914062 729.334960938 109.00390625 734.001953125 c 0
 113.670898438 738.668945312 119.670898438 741.001953125 127.00390625 741.001953125 c 0
 136.336914062 741.001953125 142.836914062 732.168945312 146.50390625 714.501953125 c 0
 150.170898438 696.834960938 152.00390625 661.66796875 152.00390625 609.000976562 c 0
 152.00390625 549.000976562 154.00390625 510.16796875 158.00390625 492.500976562 c 0
 162.00390625 474.833984375 172.00390625 461.000976562 188.00390625 451.000976562 c 0
 212.00390625 434.333984375 236.670898438 426.000976562 262.00390625 426.000976562 c 0
 287.336914062 426.000976562 308.336914062 434.333984375 325.00390625 451.000976562 c 0
 334.336914062 459.66796875 341.169921875 475.834960938 345.502929688 499.501953125 c 0
 349.8359375 523.168945312 352.002929688 559.668945312 352.002929688 609.001953125 c 0
 352.002929688 660.334960938 353.502929688 695.16796875 356.502929688 713.500976562 c 0
 359.502929688 731.833984375 365.669921875 741.000976562 375.002929688 741.000976562 c 0
 384.3359375 741.000976562 391.168945312 730.16796875 395.501953125 708.500976562 c 0
 399.834960938 686.833984375 403.334960938 646.666992188 406.001953125 588 c 0
 410.001953125 489.333007812 416.334960938 426.666015625 425.001953125 399.999023438 c 0
 432.334960938 386.666015625 434.66796875 379.333007812 432.000976562 378 c 0
 429.333984375 376.666992188 419.666992188 380 403 388 c 0
 389.666992188 396 376.166992188 399.833007812 362.5 399.5 c 0
 348.833007812 399.166992188 330.666015625 395 307.999023438 387 c 0
 270.666015625 374.333007812 235.333007812 374 202 386 c 2
 152 404 l 1
 152 206 l 2
 152 163.333007812 151.666992188 129.666015625 151 104.999023438 c 0
 150.333007812 80.33203125 149 60.33203125 147 44.9990234375 c 0
 145 29.666015625 142.333007812 19.4990234375 139 14.4990234375 c 0
 135.666992188 9.4990234375 131.666992188 6.9990234375 127 6.9990234375 c 0
 115.666992188 6.9990234375 108.666992188 25.83203125 106 63.4990234375 c 0
 103.333007812 101.166015625 102 187.333007812 102 322 c 2
 102 639 l 1
 56 615 l 2
 21.3330078125 597.666992188 4.666015625 593.333984375 5.9990234375 602.000976562 c 0
 6.666015625 610.000976562 21.3330078125 625.66796875 50 649.000976562 c 0
 64.6669921875 661.66796875 77 674.66796875 87 688.000976562 c 0
 97 701.333984375 102 711.166992188 102 717.5 c 0
235.00390625 666.501953125 m 0
 235.00390625 686.834960938 236.836914062 704.333007812 240.50390625 719 c 0
 244.170898438 733.666992188 248.00390625 741 252.00390625 741 c 0
 256.670898438 741 260.670898438 733.833007812 264.00390625 719.5 c 0
 267.336914062 705.166992188 269.00390625 687.333984375 269.00390625 666.000976562 c 0
 269.00390625 644.66796875 267.336914062 626.834960938 264.00390625 612.501953125 c 0
 260.670898438 598.168945312 256.670898438 591.001953125 252.00390625 591.001953125 c 0
 248.00390625 591.001953125 244.170898438 598.501953125 240.50390625 613.501953125 c 0
 236.836914062 628.501953125 235.00390625 646.168945312 235.00390625 666.501953125 c 0
EndSplineSet
Ligature2: "'rlig' Required Ligatures lookup 1 subtable" k h
Ligature2: "'rlig' Required Ligatures lookup 0 subtable" k h
EndChar
